<svg width="3938" height="2475" xmlns="http://www.w3.org/2000/svg" xmlns:xlink="http://www.w3.org/1999/xlink" xml:space="preserve" overflow="hidden"><defs><clipPath id="clip0"><rect x="231" y="0" width="3938" height="2475"/></clipPath><linearGradient x1="2057.7" y1="1469.41" x2="2114.48" y2="1435.86" gradientUnits="userSpaceOnUse" spreadMethod="pad" id="fill1"><stop offset="0" stop-color="#909CA9"/><stop offset="1" stop-color="#EDEDEE"/></linearGradient><linearGradient x1="2059.94" y1="358.077" x2="2105.63" y2="358.077" gradientUnits="userSpaceOnUse" spreadMethod="pad" id="fill2"><stop offset="0" stop-color="#939FAB"/><stop offset="1" stop-color="#DCDEE1"/></linearGradient><radialGradient cx="-9757.83" cy="-5920.93" r="898.12" gradientUnits="userSpaceOnUse" spreadMethod="pad" id="fill3" gradientTransform="matrix(-0.064866 -0.00974549 0.0197099 -0.129732 1948.52 -137.88)"><stop offset="0" stop-color="#EE352C"/><stop offset="1" stop-color="#A91D22"/></radialGradient><clipPath id="clip4"><rect x="1448" y="251" width="1504" height="1932"/></clipPath><clipPath id="clip5"><rect x="1448" y="251" width="1504" height="1932"/></clipPath><clipPath id="clip6"><rect x="1448" y="251" width="1504" height="1932"/></clipPath><clipPath id="clip7"><rect x="843" y="147" width="2714" height="2181"/></clipPath><clipPath id="clip8"><rect x="843" y="147" width="2714" height="2181"/></clipPath><clipPath id="clip9"><rect x="843" y="147" width="2714" height="2181"/></clipPath><clipPath id="clip10"><rect x="768" y="226" width="2926" height="2023"/></clipPath><clipPath id="clip11"><rect x="768" y="226" width="2926" height="2023"/></clipPath></defs><g clip-path="url(#clip0)" transform="translate(-231 0)"><path d="M2644.79 870.545 2368.72 960.674 2128.54 1066.68 2061.34 1084.43C2044.21 1100.71 2026.29 1117.21 2006.89 1133.88 1985.61 1152.26 1965.81 1168.93 1950.56 1181.05 1933.66 1194.42 1908.62 1219.46 1895.88 1235.27 1876.87 1259.06 1861.85 1284.32 1855.42 1303.72 1843.93 1338.78 1849.56 1374.22 1871.69 1407 1900.09 1448.71 1956.65 1491.27 2022.54 1520.29 2056.11 1535.08 2112.67 1554.08 2155.23 1564.72 2225.95 1582.65 2362.85 1602.05 2438.19 1605.01 2453.44 1605.64 2473.87 1605.64 2474.72 1605.01 2476.37 1603.99 2488.09 1581.62 2501.63 1553.91 2547.95 1459.4 2581.35 1370.7 2599.5 1294.96 2610.37 1249.04 2618.9 1187.93 2624.54 1115.5 2626.02 1095.24 2626.64 1027.42 2625.39 1004.49 2623.51 966.933 2620.16 936.492 2614.98 906.619 2614.12 902.238 2613.95 898.255 2614.35 898.084 2615.21 897.459 2617.71 896.605 2651.68 886.818L2644.79 870.545 2644.79 870.545 2644.79 870.545 2644.79 870.545ZM2581.75 907.473C2584.25 907.473 2590.91 971.542 2592.62 1012 2593.02 1020.53 2592.84 1026.17 2592.39 1026.17 2590.74 1026.17 2557.11 1006.37 2533.16 991.344 2512.27 978.2 2472.67 951.912 2466.41 946.905 2464.31 945.425 2464.53 945.255 2481.66 939.394 2510.62 929.607 2579.47 907.473 2581.75 907.473ZM2441.15 953.79C2443.03 953.79 2447.81 956.521 2459.3 963.576 2502.26 990.49 2560.7 1023.04 2585.73 1033.9 2593.47 1037.26 2594.27 1036.01 2576.57 1048.07 2538.62 1073.96 2491.22 1099.4 2433.24 1125.06 2423 1129.67 2414.46 1133.2 2414.24 1133.2 2413.84 1133.2 2415.09 1127.96 2416.74 1121.7 2430.74 1069.75 2438.65 1017.18 2439.04 975.013 2439.27 954.131 2439.27 954.131 2441.15 953.505 2440.69 953.79 2440.92 953.79 2441.15 953.79L2441.15 953.79ZM2412.13 964.828C2413.38 966.08 2412.53 1012.79 2410.88 1025.54 2407.12 1055.98 2401.26 1084.38 2391.7 1116.3 2389.43 1124.03 2387.32 1130.46 2386.92 1130.92 2386.07 1131.94 2357.51 1104.01 2348.12 1093.14 2331.84 1074.36 2319.1 1055.58 2309.71 1037.2 2304.93 1027.82 2297.42 1009.44 2298.05 1008.81 2301.35 1006.59 2411.28 964.032 2412.13 964.828L2412.13 964.828ZM2275.68 1018.48C2275.91 1018.48 2276.08 1018.48 2276.31 1018.71 2276.71 1019.11 2278.19 1022.47 2279.44 1026.22 2286.1 1044.37 2301.12 1071.06 2314.09 1088.19 2328.26 1106.96 2346.87 1126.99 2362.29 1140.14 2367.29 1144.29 2371.9 1148.27 2372.53 1148.9 2373.78 1150.15 2374.18 1149.92 2340.21 1162.9 2300.78 1177.92 2257.82 1192.94 2208.54 1208.82 2196.76 1212.63 2185.04 1216.44 2173.26 1220.31 2171.39 1220.94 2172.01 1219.91 2177.42 1211.32 2201.83 1173.14 2238.98 1098.2 2259.87 1045.23 2263.39 1036.07 2266.98 1026.85 2267.6 1024.8 2268.46 1021.9 2269.48 1020.82 2272.21 1019.4 2273.58 1018.88 2275.06 1018.48 2275.68 1018.48L2275.68 1018.48ZM2233.92 1035.78C2234.55 1036.18 2223.9 1058.54 2213.49 1078.97 2193.24 1118.4 2171.16 1157.21 2141.51 1204.38 2136.51 1212.51 2131.73 1220.02 2131.1 1220.88 2130.08 1222.36 2129.62 1221.9 2126.32 1215.47 2119.21 1201.48 2113.41 1183.55 2110.28 1167.05 2107.15 1150.78 2107.77 1122.38 2111.3 1104.86 2114.03 1091.94 2113.8 1092.11 2120.06 1088.98 2146.69 1075.44 2233.12 1034.93 2233.92 1035.78L2233.92 1035.78ZM2593.87 1050.41 2593.87 1059.17C2593.87 1105.71 2588.86 1169.55 2581.58 1216.1 2580.33 1224.24 2579.3 1230.89 2579.07 1231.12 2579.07 1231.12 2573.04 1229.47 2565.93 1227.36 2534.64 1217.58 2500.61 1203.18 2469.94 1186.28 2449.68 1175.24 2420.27 1157.09 2421.12 1156.24 2421.35 1156.01 2430.11 1151.46 2440.3 1146 2481.21 1124.72 2520.41 1101.79 2554.44 1079.03 2567.18 1070.49 2586.36 1056.72 2590.51 1052.97L2593.87 1050.41 2593.87 1050.41ZM2076.36 1112.14C2077.22 1112.14 2076.99 1113.79 2075.74 1121.3 2074.88 1126.71 2073.86 1136.72 2073.46 1143.61 2071.81 1174.05 2076.82 1196.64 2091.84 1227.48 2095.99 1236.01 2099.35 1243.13 2099.12 1243.35 2097.64 1244.61 1959.55 1285.06 1916.13 1296.95 1903.22 1300.48 1891.95 1303.61 1891.1 1303.84 1889.62 1304.24 1889.45 1304.07 1890.07 1300.48 1894.85 1269.81 1918.24 1229.75 1950.78 1195.96 1972.46 1173.42 1989.82 1160.28 2019.46 1143.38 2040.74 1131.26 2073.52 1113.11 2076.02 1112.31 2075.96 1112.14 2076.19 1112.14 2076.36 1112.14L2076.36 1112.14ZM2401.89 1170.35C2402.12 1170.12 2407.12 1172.85 2413.15 1176.38 2457.82 1202.27 2520.01 1226.23 2572.99 1238.57L2577.77 1239.6 2571.11 1243.35C2543.34 1258.77 2452.19 1296.78 2358.93 1331.61 2345.39 1336.61 2332.01 1341.62 2329.51 1342.64 2327.01 1343.67 2324.73 1344.29 2324.73 1344.12 2324.73 1343.9 2328.49 1336.61 2333.27 1327.62 2359.33 1278.8 2385.61 1219.34 2398.99 1178.03 2400.64 1174.11 2401.66 1170.58 2401.89 1170.35L2401.89 1170.35ZM2368.72 1181.22C2368.94 1181.45 2367.24 1185.83 2365.19 1190.83 2347.04 1234.88 2323.25 1282.84 2292.75 1336.67 2285.02 1350.44 2278.59 1361.48 2278.36 1361.48 2278.13 1361.48 2271.87 1357.72 2264.36 1353.11 2220.15 1325.97 2180.89 1292.63 2155.23 1260.25L2151.47 1255.64 2170.48 1250.41C2238.53 1231.86 2296.28 1211.83 2353.69 1187.19 2361.83 1183.95 2368.49 1181.22 2368.72 1181.22ZM2574.86 1253.2C2574.86 1253.2 2575.09 1253.42 2574.86 1253.2 2575.09 1257.98 2564.45 1300.99 2555.69 1332.06 2548.41 1358.12 2542.15 1378.6 2530.65 1414.68 2525.65 1430.55 2521.26 1443.7 2521.04 1443.7 2520.81 1443.7 2519.56 1443.47 2518.31 1443.07 2456.34 1431.81 2400.81 1416.16 2348.69 1395.28 2334.06 1389.42 2313.24 1380.03 2311.99 1379 2311.59 1378.6 2324.11 1372.74 2339.92 1365.86 2434.89 1324.32 2533.33 1277.15 2567.13 1256.95 2571.11 1254.45 2574.24 1253.2 2574.86 1253.2L2574.86 1253.2ZM2098.95 1269.47C2099.35 1269.87 2072.89 1308.05 2035.74 1360.06 2022.82 1378.21 2007.8 1399.49 2002.17 1407.4 1996.53 1415.31 1988 1427.82 1983.16 1435.33L1974.4 1448.88 1965.01 1440.97C1953.97 1431.81 1934.74 1412.18 1926.2 1401.31 1908.28 1379 1896.16 1355.39 1891.38 1333.94 1889.11 1323.92 1889.11 1318.92 1891.15 1318.29 1894.28 1317.44 1949.99 1304.29 2002.17 1292.23 2031.18 1285.57 2064.76 1277.61 2076.88 1274.71 2088.88 1271.8 2098.72 1269.47 2098.95 1269.47L2098.95 1269.47ZM2125.64 1279.71 2132.3 1287.22C2162.34 1320.79 2193.01 1345.66 2230.16 1367.34 2236.82 1371.09 2241.83 1374.45 2241.43 1374.62 2239.95 1375.65 2112.49 1420.94 2053.43 1441.37 2020.26 1453.03 1992.95 1462.42 1992.72 1462.42 1992.49 1462.42 1990.61 1461.17 1988.57 1459.69L1984.81 1456.96 1990.84 1448.19C2010.47 1419.8 2035.05 1388.73 2088.71 1324.04L2125.64 1279.71 2125.64 1279.71ZM2292.13 1398.86C2292.36 1398.63 2301.52 1401.99 2312.78 1406.14 2339.92 1416.39 2361.38 1422.82 2390.22 1430.16 2425.67 1439.15 2477.05 1447.91 2507.27 1450.41 2511.88 1450.81 2514.38 1451.27 2513.53 1451.89 2512.05 1452.75 2481.38 1462.93 2458.84 1470.04 2422.94 1481.31 2313.41 1513.63 2224.08 1539.29 2207.57 1544.07 2193.41 1548.05 2192.55 1548.28 2190.45 1548.68 2183.56 1546.8 2183.56 1546 2183.56 1545.61 2188.57 1539.12 2194.6 1532.01 2224.64 1496.1 2254.46 1456.05 2279.33 1418.09 2286.32 1407.62 2292.13 1399.09 2292.13 1398.86L2292.13 1398.86ZM2255.43 1399.89C2255.66 1400.11 2240.8 1423.9 2214.97 1464.75 2203.93 1482.05 2191.59 1501.68 2187.2 1508.56 2183.05 1515.22 2176.79 1525.69 2173.21 1531.5L2167.18 1542.14 2164.05 1541.28C2156.54 1539.18 2103.73 1520.63 2089.73 1514.99 2072.44 1508.11 2054.46 1499.74 2041.14 1492.69 2024.47 1483.7 2003.59 1470.38 2005.24 1469.93 2005.64 1469.7 2034.26 1462.02 2068.68 1452.63 2160.06 1427.82 2210.76 1413.43 2243.93 1402.96 2250.02 1401.14 2255.2 1399.71 2255.43 1399.89L2255.43 1399.89ZM2515.18 1460.83 2515.4 1460.83C2516.26 1462.93 2482.46 1556.82 2470.11 1586.46 2467.38 1593.12 2466.36 1594.82 2464.88 1594.6 2461.35 1594.37 2412.3 1587.48 2382.43 1583.1 2330.48 1575.19 2243.25 1559.95 2221.34 1554.94L2216.34 1553.91 2247.4 1546.8C2314.21 1531.78 2346.3 1523.64 2378.84 1513.63 2419.93 1501.11 2460.67 1485.46 2501.75 1466.29 2508.29 1463.33 2513.75 1461.05 2515.18 1460.83L2515.18 1460.83Z" fill="url(#fill1)"/><path d="M2360.18 227.004C2355.57 226.378 2281.49 253.064 2233.75 272.467 2169.28 298.755 2119.21 323.791 2088.31 345.47 2076.82 353.607 2062.42 368.002 2060.15 373.635 2059.29 375.741 2058.89 378.244 2058.89 380.748L2086.83 407.263 2153.41 428.544 2311.76 456.937 2492.87 488.006 2494.75 472.357C2494.12 472.357 2493.72 472.129 2493.1 472.129L2469.31 468.374 2464.53 459.839C2439.9 416.424 2412.81 362.597 2396.94 326.295 2384.65 298.129 2372.93 265.582 2366.5 242.196 2362.85 228.085 2362.46 227.232 2360.18 227.004L2360.18 227.004 2360.18 227.004 2360.18 227.004ZM2356.82 237.644 2357.05 237.644C2357.28 237.872 2358.07 243.676 2358.93 250.561 2362.46 279.75 2368.94 307.916 2379.19 338.414 2386.92 361.345 2386.92 360.093 2377.93 357.419 2356.65 351.558 2261.29 335.114 2192.21 325.498 2181.17 324.019 2171.78 322.596 2171.78 322.369 2170.93 321.515 2221.63 295.057 2243.99 284.587 2272.55 271.443 2350.96 238.726 2356.82 237.644L2356.82 237.644ZM2155.68 331.131 2163.82 333.862C2208.03 348.884 2319.27 370.164 2380.61 375.172 2387.49 375.798 2393.35 376.424 2393.52 376.424 2393.75 376.651 2387.89 379.781 2380.38 383.308 2350.74 398.102 2318.19 416.254 2295.66 430.251 2289 434.405 2282.91 437.762 2282.11 437.762 2281.26 437.762 2276.88 436.908 2272.33 436.282L2263.96 435.031 2243.08 414.603C2206.38 378.927 2177.53 351.388 2166.49 340.975L2155.68 331.131ZM2147.32 337.618 2176.73 374.318C2192.78 394.575 2209.05 414.376 2212.64 418.757 2216.17 423.138 2219.13 426.666 2218.9 426.894 2218.04 427.52 2176.34 419.383 2154.2 414.376 2131.44 409.141 2122.05 406.637 2108.11 402.256L2096.62 398.501 2096.62 395.599C2096.85 381.601 2114.54 360.776 2144.59 339.495L2147.32 337.618 2147.32 337.618ZM2397.34 387.69C2398.19 387.69 2399.21 389.567 2401.72 395.201 2408.83 410.848 2430.91 453.011 2436.37 461.148 2438.02 463.879 2440.98 464.05 2411.56 459.27 2340.83 447.776 2318.07 444.021 2318.07 443.622 2318.07 443.395 2320.18 441.972 2322.85 440.493 2344.76 428.373 2366.89 412.953 2386.47 396.452 2391.25 392.469 2395.63 388.714 2396.48 388.088 2396.65 387.69 2397.11 387.462 2397.34 387.69L2397.34 387.69Z" fill="url(#fill2)"/><path d="M2061.57 370.79C2061.57 370.79 2056.96 378.074 2061.34 388.942 2064.07 395.599 2071.98 403.736 2080.97 412.1 2080.97 412.1 2173.83 502.686 2185.1 515.603 2236.42 574.836 2258.73 633.272 2260.83 713.842 2262.08 765.564 2252.3 811.084 2227.89 863.888 2184.47 958.626 2092.86 1063.15 1951.64 1179.17L1972.29 1172.29C1985.66 1162.27 2003.82 1151.63 2046.38 1128.24 2144.64 1074.42 2255.26 1024.97 2390.85 974.046 2586.13 900.588 2907.27 814.612 3090.09 786.674L3109.1 783.772 3106.2 779.163C3089.52 753.274 3078.03 737.228 3064.26 720.101 3024.2 670.428 2975.61 630.142 2916.09 596.799 2834.27 551.108 2728.49 515.432 2594.55 488.917 2569.29 483.908 2513.81 474.292 2468.75 467.407 2373.15 452.613 2311.42 442.371 2243.36 430.706 2218.95 426.552 2182.42 420.293 2158.24 415.059 2145.72 412.327 2121.71 406.694 2102.94 400.265 2087.86 394.347 2066.18 388.543 2061.57 370.79L2061.57 370.79ZM2115.4 422.968C2115.62 422.74 2118.92 423.992 2123.31 425.471 2131.21 428.203 2141.46 431.332 2153.58 434.632 2162.74 437.136 2171.9 439.583 2181.12 441.915 2193.63 445.045 2204.05 447.947 2204.27 447.947 2205.75 449.426 2226.81 516.798 2233.92 542.687 2236.65 552.474 2238.7 560.838 2238.53 560.838 2238.3 561.066 2236.02 557.481 2233.29 552.701 2208.88 509.742 2170.31 466.098 2125.64 431.048 2119.78 426.894 2115.4 423.138 2115.4 422.968L2115.4 422.968ZM2218.04 451.304C2219.07 451.304 2223.68 451.93 2229.31 453.182 2264.76 461.091 2328.43 473.21 2369.11 480.095 2376 481.12 2381.4 482.371 2381.4 482.827 2381.4 483.225 2378.9 484.704 2375.77 486.356 2368.89 489.884 2341.12 506.385 2331.96 512.644 2308.8 528.064 2287.92 544.792 2272.9 559.814 2266.86 565.845 2261.63 570.853 2261.63 570.853 2261.63 570.853 2260.38 567.325 2259.35 562.943 2251.84 533.924 2236.2 490.965 2222.03 460.692 2219.75 455.913 2217.87 451.532 2217.87 451.076 2217.87 451.532 2217.87 451.304 2218.04 451.304L2218.04 451.304ZM2398.76 485.785C2400.01 486.184 2402.12 493.298 2406.27 508.945 2414.01 539.216 2417.54 573.015 2416.28 604.537 2415.89 613.3 2415.43 621.437 2415.03 622.461L2414.41 624.566 2403.54 621.038C2381.23 613.926 2344.93 603.286 2313.81 594.523 2296.05 589.743 2281.66 585.362 2281.66 584.907 2281.66 583.655 2307.55 557.766 2318.59 547.979 2339.7 529.372 2396.88 485.103 2398.76 485.785L2398.76 485.785ZM2413.15 487.835C2413.78 487.21 2499.53 502.004 2538.56 509.514 2567.58 515.147 2609.74 523.91 2612.19 524.934 2613.44 525.333 2609.06 527.836 2595.06 534.095 2539.98 558.904 2499.07 581.265 2458.39 608.407 2447.75 615.519 2438.76 621.323 2438.59 621.323 2438.42 621.323 2438.19 615.291 2438.19 607.951 2438.19 568.292 2430.28 528.234 2415.66 494.436 2414.24 491.193 2412.98 488.063 2413.15 487.835ZM2634.95 531.648C2635.58 532.274 2632.84 549.174 2630.34 559.188 2622.83 590.255 2602.57 636.401 2577.77 679.816 2573.38 687.554 2569.4 693.813 2569 693.984 2568.6 694.212 2562.97 691.082 2556.49 687.327 2532.3 673.159 2504.76 659.787 2474.66 647.269 2466.3 643.741 2459.02 640.783 2458.79 640.384 2457.31 639.133 2524.51 594.694 2560.01 573.413 2588.24 556.286 2634.15 530.852 2634.95 531.648L2634.95 531.648ZM2650.83 534.152C2652.7 534.152 2690.66 544.565 2710.51 550.425 2759.56 565.049 2815.89 585.703 2852.59 602.375L2867.84 609.26 2857.2 611.764C2767.47 632.418 2690.71 656.203 2616.63 686.246 2610.6 688.749 2605.13 690.855 2604.74 690.855 2604.34 690.855 2606.39 686.075 2609.12 680.214 2631.42 632.874 2645.82 583.371 2649.4 541.265 2649.57 537.282 2650.2 534.152 2650.83 534.152L2650.83 534.152ZM2272.73 620.981C2273.35 620.356 2302.37 627.24 2318.02 631.622 2341.8 638.279 2392.27 655.178 2392.27 656.43 2392.27 656.658 2386.64 661.437 2379.98 667.298 2352.67 690.058 2326.38 714.013 2294.86 744.511 2285.47 753.502 2277.56 760.785 2277.11 760.785 2276.71 760.785 2276.48 759.533 2276.71 757.883 2281.49 722.832 2280.46 677.768 2273.81 632.077 2273.18 626.159 2272.55 621.152 2272.73 620.981ZM2882.24 621.607C2882.64 622.006 2868.87 643.741 2860.1 656.032 2847.59 673.955 2829.21 697.74 2787.67 749.917 2765.76 777.456 2741.13 808.524 2732.99 818.993 2724.62 829.406 2717.74 838.169 2717.57 838.169 2717.34 838.169 2714.67 834.413 2711.71 829.804 2688.32 794.754 2660.38 764.085 2627.21 736.545 2620.95 731.311 2614.07 725.677 2611.79 724.027 2609.52 722.377 2607.64 720.67 2607.64 720.5 2607.64 719.874 2643.09 704.624 2670 693.813 2717.17 674.638 2781.41 651.651 2829.61 636.857 2854.93 628.891 2881.84 621.152 2882.24 621.607L2882.24 621.607ZM2898.28 625.761C2899.14 625.533 2904.14 628.037 2910.18 631.622 2960.87 660.641 3010.55 697.967 3049.75 736.375 3060.79 747.243 3088.16 775.579 3087.7 775.806 3087.7 775.806 3078.09 776.66 3066.82 777.456 2978.97 784.114 2866.53 802.72 2758.42 828.78 2751.14 830.43 2744.65 831.91 2744.26 831.91 2743.86 831.91 2751.99 823.773 2762.18 813.986 2825.62 752.876 2854.64 714.241 2888.84 645.392 2893.73 635.15 2897.89 626.387 2898.28 625.761 2898.11 625.761 2898.11 625.761 2898.28 625.761L2898.28 625.761ZM2433.64 673.329C2436.54 673.955 2463.68 686.701 2484.11 696.886 2502.89 706.275 2531.05 721.296 2532.53 722.548 2532.76 722.776 2522.74 727.953 2510.4 734.042 2471.19 753.672 2437.56 772.222 2402.51 793.502 2392.5 799.534 2384.14 804.541 2383.96 804.541 2383.11 804.541 2383.34 803.687 2388.97 793.502 2407.75 759.305 2422.77 718.394 2431.31 678.507 2432.16 675.435 2433.01 673.329 2433.64 673.329L2433.64 673.329ZM2406.5 678.337C2407.12 678.963 2400.01 704.624 2395.63 718.622 2387.09 745.137 2372.7 778.31 2358.7 803.346 2355.34 809.207 2350.34 817.742 2347.66 822.521L2342.43 830.886 2330.76 819.619C2317.22 806.475 2306.13 798.339 2291.96 791.056 2286.32 788.154 2281.94 785.65 2281.94 785.195 2281.94 783.545 2317.62 751.169 2344.93 727.84 2364.56 710.883 2405.87 677.711 2406.5 678.337L2406.5 678.337ZM2572.36 746.56 2582.6 753.217C2605.99 768.466 2633.53 788.666 2654.58 806.419 2666.47 816.205 2689.4 836.86 2694.01 841.867L2696.52 844.598 2679.62 849.378C2584.02 875.893 2510.17 899.45 2424.02 931.2 2414.41 934.728 2406.27 937.687 2405.64 937.687 2404.39 937.687 2403.37 938.711 2424.82 918.91 2479.9 868.212 2528.72 812.279 2565.02 757.826L2572.36 746.56 2572.36 746.56ZM2528.77 757.428C2529.17 757.826 2500.61 798.111 2483.48 820.871 2463.06 848.012 2426.75 893.476 2401.66 923.12 2391.25 935.411 2382.26 945.653 2381.86 945.88 2381.23 946.108 2381.01 942.979 2381.01 938.142 2381.01 912.878 2374.52 885.965 2363.25 863.034 2358.47 853.418 2357.62 851.142 2358.64 850.118 2362.63 846.59 2423.34 811.938 2461.75 791.283 2487.64 777.456 2528.15 757.029 2528.77 757.428L2528.77 757.428ZM2265.04 822.123C2265.67 822.123 2270.45 824.627 2275.91 827.528 2289.28 834.812 2301.18 842.948 2311.82 851.711 2312.21 852.109 2306.81 856.491 2299.7 861.725 2279.89 875.893 2249.85 898.653 2232.33 912.651 2213.95 927.274 2213.32 927.672 2215.43 924.543 2229.2 903.49 2236.08 891.598 2243.36 876.349 2249.85 862.806 2256.28 846.704 2260.89 832.763 2262.54 826.732 2264.59 822.123 2265.04 822.123L2265.04 822.123ZM2335.31 877.202C2336.34 876.975 2337.59 878.852 2343.22 887.217 2355.12 904.969 2364.28 928.754 2366.61 947.929L2367.01 952.083 2338.44 963.121C2287.29 982.922 2240.18 1002.55 2208.26 1017.18 2199.27 1021.33 2183.62 1028.84 2173.43 1033.85 2163.19 1039.08 2154.89 1043.01 2154.89 1042.84 2154.89 1042.67 2161.37 1037.83 2169.28 1031.97 2231.7 986.678 2285.7 937.004 2326.21 887.387 2330.59 882.152 2334.58 877.373 2334.97 877.145L2335.31 877.202 2335.31 877.202ZM2303 885.111C2303.85 885.965 2280.07 912.878 2263.79 929.323 2223.51 970.404 2183.68 1002.55 2134.23 1033.85 2127.97 1037.83 2122.34 1041.36 2121.71 1041.76 2120.23 1042.61 2122.11 1040.51 2143.85 1016.95 2157.62 1002.15 2168.03 989.637 2179.92 974.16 2187.83 963.918 2189.31 962.495 2200.8 954.359 2231.42 932.281 2302.14 884.315 2303 885.111Z" fill="url(#fill3)"/><path d="M1399.4 1749.11C1395.6 1749.11 1391.7 1749.51 1387.9 1749.51 1310.2 1753.61 1257.7 1787.91 1227.1 1854.71 1200.9 1915.11 1203.7 1994.11 1227.4 2054.91 1254.9 2114.31 1299.3 2145.71 1373.5 2157.51 1389.2 2160.11 1399.7 2168.71 1430.1 2204.21L1467.5 2248.01 1535.3 2248.01 1490.2 2202.51C1465.3 2177.61 1445.1 2155.91 1445.1 2153.91 1445.1 2152.01 1454.6 2147.81 1466.2 2144.31 1504.3 2132.81 1535.9 2103.41 1558 2058.31 1575.9 2022.11 1578.5 2010.91 1581 1965.91 1587.8 1831.91 1517.1 1748.11 1399.4 1749.11L1399.4 1749.11 1399.4 1749.11ZM1458.9 2099.61C1425.9 2115.61 1378 2118.81 1346.7 2107.31 1314.4 2095.41 1283 2061.81 1269 2023.81 1253.3 1982.21 1255.6 1905.51 1273.5 1871.01 1302.3 1816.01 1340.4 1790.71 1396 1790.71 1478.5 1790.71 1525.4 1841.21 1531.6 1936.21 1536.3 2015.51 1509.8 2074.91 1458.9 2099.61L1458.9 2099.61ZM2630.9 1863.61C2602.4 1863.61 2580.7 1875.11 2566 1897.81L2554.5 1915.81 2554.5 1869.11 2505.3 1869.11 2505.3 2149.31 2554.5 2149.31 2554.5 2059.71C2554.5 1977.81 2555.5 1968.21 2567 1945.81 2582.8 1915.11 2609.9 1899.71 2636.1 1907.11L2653.7 1912.21 2653.7 1863.61 2630.9 1863.61 2630.9 1863.61 2630.9 1863.61ZM2341.5 1861.01C2331.9 1861.01 2321.6 1862.31 2311.4 1864.51 2245.5 1881.71 2208.4 1944.81 2210.6 2009.71 2210.6 2064.01 2221.2 2091.21 2247.4 2119.71 2301.1 2163.81 2349.7 2167.31 2415.3 2143.61 2426.5 2138.81 2438.7 2133.31 2438.7 2133.31L2438.7 2089.21 2415.3 2101.31C2362.2 2124.41 2322.3 2124.41 2290.2 2097.21 2269.8 2076.41 2260.8 2051.51 2256.6 2023.01L2455.2 2023.01 2455.2 1985.21C2455.3 1908.41 2409 1859.81 2341.5 1861.01L2341.5 1861.01 2341.5 1861.01ZM2261.2 1983.91C2261.2 1983.91 2268.5 1935.91 2295.7 1917.01 2308.8 1907.81 2323.8 1903.31 2338.5 1903.31 2353.2 1903.31 2367.9 1908.11 2380.1 1917.31 2405 1936.51 2409.2 1983.51 2409.2 1983.51L2261.1 1983.51 2261.2 1983.91 2261.2 1983.91 2261.2 1983.91ZM1073.9 1933.41C1020.5 1901.11 996.799 1877.71 999.699 1850.21 1008 1774.11 1102 1784.61 1154.1 1813.41L1154.5 1762.21C1154.5 1762.21 1125.7 1749.71 1084.5 1749.11 1021.2 1748.11 980.299 1768.91 961.099 1811.11 932.899 1873.41 957.899 1920.51 1048 1972.91 1098.6 2002.31 1121 2027.91 1121 2055.81 1121 2113.41 1051.6 2133.51 979.999 2097.31 965.299 2090.01 952.799 2083.81 952.099 2083.81 949.499 2100.11 950.899 2139.21 950.899 2139.21 950.899 2139.21 972.899 2148.41 1005.9 2154.81 1087.7 2171.11 1162.2 2132.71 1169.3 2070.41 1175.3 2011.91 1154.1 1981.21 1073.9 1933.41L1073.9 1933.41 1073.9 1933.41ZM3066.7 1860.41C3057.1 1860.41 3046.9 1861.71 3036.3 1864.01 2970.5 1881.21 2933.4 1944.31 2935.9 2009.21 2935.9 2063.51 2946.4 2090.41 2972.6 2118.81 3026.3 2162.91 3074.9 2166.51 3140.8 2142.81 3151.9 2138.01 3164.1 2132.61 3164.1 2132.61L3164.1 2088.41 3140.8 2100.61C3087.6 2123.61 3047.7 2123.61 3015.8 2096.41 2995.3 2075.61 2986.4 2051.01 2982.2 2022.21L3180.4 2022.21 3180.4 1984.41C3180.4 1907.81 3134 1859.11 3066.6 1860.41L3066.7 1860.41 3066.7 1860.41ZM2986.4 1983.21C2986.4 1983.21 2993.8 1935.21 3021 1916.01 3034.1 1906.71 3049.1 1902.21 3063.8 1902.21 3078.5 1902.21 3093.2 1907.01 3105.4 1916.31 3130.3 1935.51 3134.5 1982.81 3134.5 1982.81L2986.5 1982.81 2986.4 1983.21 2986.4 1983.21ZM2083.7 1934.01C2030.3 1901.71 2006.7 1878.31 2009.6 1850.81 2017.9 1774.71 2111.9 1785.21 2164 1814.01L2164.4 1762.81C2164.4 1762.81 2135.6 1750.31 2094.4 1749.71 2031.1 1748.71 1990.2 1769.51 1971 1811.71 1942.9 1874.01 1968.1 1921.11 2058 1973.51 2108.5 2002.91 2130.9 2028.11 2130.9 2056.01 2130.9 2113.61 2061.5 2134.01 1989.9 2097.51 1975.2 2090.21 1962.8 2084.11 1962 2084.11 1959.4 2100.41 1960.8 2139.51 1960.8 2139.51 1960.8 2139.51 1982.5 2148.41 2015.4 2155.11 2097.3 2171.51 2171.8 2133.11 2178.8 2070.81 2184.8 2012.71 2163.7 1982.01 2083.7 1934.01L2083.7 1934.01 2083.7 1934.01ZM3356.1 1863.01C3327.6 1863.01 3305.6 1874.51 3291.2 1897.31L3279.7 1915.21 3279.7 1868.61 3230.5 1868.61 3230.5 2148.71 3279.7 2148.71 3279.7 2059.01C3279.7 1977.11 3280.7 1967.51 3292.2 1945.21 3308 1914.51 3335.1 1899.11 3361.3 1906.51L3378.9 1911.61 3378.9 1863.01 3356.1 1863.01 3356.1 1863.01ZM1692.1 1932.41 1692.1 1754.01 1642.4 1754.01 1642.4 2149.21 1851.2 2149.21 1851.2 2102.51 1692.1 2102.51 1692.1 1932.41 1692.1 1932.41ZM2840.3 1988.01 2799.4 2094.51 2760 1987.41 2720 1868.71 2669.2 1868.71C2702.1 1962.11 2738 2057.01 2774.1 2149.11 2789.8 2149.51 2805.5 2149.11 2821.1 2149.11L2876.4 2010.31 2932.7 1868.71 2884.1 1868.71C2884.1 1868.81 2862.7 1925.01 2840.3 1988.01L2840.3 1988.01 2840.3 1988.01ZM1806.5 1646.21C1814.5 1646.21 1821.2 1643.61 1826.7 1638.11 1832.1 1632.71 1835 1626.31 1835 1618.31 1835 1610.31 1832.1 1603.61 1826.7 1598.51 1821.2 1593.41 1814.9 1590.81 1806.9 1590.81 1798.8 1590.81 1792.2 1593.41 1786.7 1598.81 1781.2 1604.21 1778.7 1610.91 1778.7 1618.61 1778.7 1626.71 1781.3 1633.31 1786.7 1638.41 1791.8 1643.61 1798.5 1646.11 1806.5 1646.21L1806.5 1646.21 1806.5 1646.21ZM1788.9 1600.71C1793.7 1595.91 1799.5 1593.71 1806.9 1593.71 1813.9 1593.71 1819.7 1595.91 1824.5 1600.71 1829.3 1605.51 1831.8 1611.31 1831.8 1618.31 1831.8 1625.31 1829.2 1631.41 1824.5 1636.21 1819.7 1641.01 1813.9 1643.21 1806.9 1643.21 1799.8 1643.21 1794.1 1641.01 1789.3 1636.21 1784.5 1631.41 1782 1625.31 1782 1618.31 1781.9 1611.31 1784.1 1605.51 1788.9 1600.71ZM1800.7 1620.91 1803.9 1620.91C1806.2 1620.91 1808.4 1623.11 1810.3 1627.31L1814.2 1636.01 1820.2 1636.01 1815.4 1626.41C1813.5 1622.61 1811.6 1620.31 1809.3 1619.71 1812.1 1619.01 1814.4 1618.11 1816 1616.21 1817.6 1614.61 1818.2 1612.31 1818.2 1609.81 1818.2 1606.91 1817.3 1604.71 1815.3 1603.11 1813.1 1601.31 1809.6 1600.31 1805 1600.31L1794.8 1600.31 1794.8 1636.11 1799.9 1636.11 1799.9 1621.11 1800.7 1620.91 1800.7 1620.91ZM1800.7 1604.31 1805.2 1604.31C1808.4 1604.31 1810.7 1605.01 1811.9 1605.91 1813.1 1606.91 1813.4 1608.11 1813.4 1610.41 1813.4 1614.51 1810.8 1616.51 1806.1 1616.51L1800.6 1616.51 1800.7 1604.31 1800.7 1604.31 1800.7 1604.31ZM980.499 1617.71C980.499 1605.21 980.099 1596.01 979.799 1590.51L980.099 1590.51C981.399 1596.91 982.999 1601.81 984.199 1604.91L1031.9 1711.41 1039.9 1711.41 1087.6 1604.01C1088.9 1601.11 1090.2 1596.71 1091.7 1590.51L1092.1 1590.51C1091.1 1601.11 1090.8 1610.41 1090.8 1617.71L1090.8 1711.71 1107.1 1711.71 1107.1 1572.01 1086.6 1572.01 1042.9 1669.31C1041.3 1673.11 1039 1678.91 1036.2 1686.51L1035.5 1686.51C1034.5 1682.71 1032.3 1677.01 1029.1 1669.91L986.299 1571.71 964.599 1571.71 964.599 1711.41 980.299 1711.41 980.299 1617.71 980.499 1617.71 980.499 1617.71ZM1143 1618.01 1157.1 1618.01 1157.1 1705.01 1143 1705.01 1143 1618.01ZM1150 1586.11C1152.9 1586.11 1155.4 1585.11 1157.3 1583.21 1159.2 1581.31 1160.5 1578.81 1160.5 1575.91 1160.5 1573.01 1159.5 1570.51 1157.3 1568.61 1155.3 1566.71 1152.8 1565.71 1149.9 1565.71 1147 1565.71 1144.5 1566.71 1142.6 1568.61 1140.7 1570.51 1139.4 1573.11 1139.4 1575.91 1139.4 1579.11 1140.4 1581.31 1142.6 1583.21 1144.8 1585.11 1147.1 1586.11 1150 1586.11L1150 1586.11 1150 1586.11ZM1257.4 1706.91 1257.4 1691.61C1249.7 1697.41 1241.4 1700.21 1232.8 1700.21 1222.5 1700.21 1214.2 1696.71 1208.1 1689.91 1202.1 1683.21 1198.8 1673.91 1198.8 1662.41 1198.8 1650.31 1202 1640.71 1208.7 1633.41 1215.1 1626.41 1223.4 1622.81 1233.6 1622.81 1241.9 1622.81 1249.9 1625.41 1257.3 1630.51L1257.3 1614.21C1250.6 1610.71 1242.9 1609.11 1234.3 1609.11 1218.3 1609.11 1205.8 1614.21 1196.5 1624.11 1187.3 1634.01 1182.5 1647.51 1182.5 1663.71 1182.5 1678.11 1186.6 1690.31 1195.3 1699.61 1204.3 1709.11 1215.8 1714.01 1229.8 1714.01 1240.8 1713.71 1249.7 1711.41 1257.4 1706.91L1257.4 1706.91ZM1297.7 1660.51C1297.7 1649.01 1300.3 1639.71 1305 1633.41 1309.5 1627.61 1314.9 1624.71 1321.3 1624.71 1326.7 1624.71 1330.6 1625.71 1333.4 1627.91L1333.4 1611.21C1331.2 1610.21 1328 1609.91 1323.9 1609.91 1318.1 1609.91 1313 1611.81 1308.5 1615.41 1303.7 1619.21 1299.9 1624.91 1297.7 1632.31L1297.3 1632.31 1297.3 1612.01 1281.3 1612.01 1281.3 1711.71 1297.3 1711.71 1297.3 1660.51 1297.7 1660.51ZM1389.5 1713.71C1404.5 1713.71 1416.6 1708.91 1425.6 1699.31 1434.5 1689.81 1439 1676.91 1439 1660.91 1439 1644.61 1434.9 1632.11 1426.5 1622.81 1418.2 1613.51 1406.7 1609.01 1391.7 1609.01 1376.7 1609.01 1364.6 1613.51 1355.6 1622.11 1346 1631.61 1340.9 1645.11 1340.9 1662.41 1340.9 1677.41 1345 1689.91 1353.7 1699.21 1362.7 1708.91 1374.5 1713.71 1389.5 1713.71L1389.5 1713.71 1389.5 1713.71ZM1366.8 1632.41C1372.9 1626.01 1380.9 1622.81 1390.8 1622.81 1401.1 1622.81 1408.8 1626.01 1414.5 1632.41 1420.3 1639.11 1423.1 1648.71 1423.1 1661.51 1423.1 1673.71 1420.5 1683.21 1415.1 1689.71 1409.7 1696.41 1401.7 1700.01 1391.1 1700.01 1380.8 1700.01 1372.9 1696.41 1366.8 1689.71 1360.8 1683.01 1357.9 1673.71 1357.9 1661.51 1357.2 1649.41 1360.4 1639.51 1366.8 1632.41L1366.8 1632.41ZM1509.1 1705.01C1515.2 1699.61 1518.4 1692.91 1518.4 1684.51 1518.4 1677.21 1515.8 1671.11 1511.1 1666.31 1507.2 1662.51 1501.2 1659.01 1492.5 1655.41 1484.8 1652.21 1480 1649.31 1477.5 1647.11 1474.9 1644.51 1473.4 1641.31 1473.4 1636.81 1473.4 1632.71 1475 1629.51 1478.2 1626.91 1481.4 1624.31 1485.5 1623.11 1491 1623.11 1499.6 1623.11 1507 1625.41 1513.7 1630.21L1513.7 1614.21C1507.2 1611.01 1500.2 1609.41 1492.2 1609.41 1481.9 1609.41 1473.3 1612.21 1466.9 1617.71 1460.2 1623.11 1457 1630.21 1457 1638.51 1457 1645.81 1459.2 1651.91 1463.4 1656.41 1466.9 1660.21 1472.9 1664.11 1481.3 1667.61 1489.3 1671.11 1494.7 1674.31 1497.6 1676.91 1500.5 1679.51 1501.7 1682.71 1501.7 1686.41 1501.7 1695.71 1495.3 1700.51 1482.9 1700.51 1473.3 1700.51 1464.7 1697.31 1457 1691.01L1457 1708.21C1464 1712.41 1472.3 1714.31 1481.6 1714.31 1493.3 1713.71 1502.6 1710.81 1509.1 1705.01L1509.1 1705.01 1509.1 1705.01ZM1585.2 1609.11C1570.2 1609.11 1558.1 1613.61 1549.1 1622.21 1539.6 1631.71 1534.4 1645.21 1534.4 1662.51 1534.4 1677.51 1538.5 1690.01 1547.2 1699.31 1556.2 1708.91 1568 1713.71 1583 1713.71 1598.4 1713.71 1610.1 1708.91 1619.1 1699.21 1628.1 1689.71 1632.6 1676.81 1632.6 1660.81 1632.6 1644.51 1628.4 1632.01 1620.1 1622.71 1611.5 1613.51 1599.9 1609.01 1585.2 1609.11L1585.2 1609.11 1585.2 1609.11ZM1616.2 1661.51C1616.2 1673.71 1613.6 1683.21 1608.2 1689.71 1602.8 1696.41 1594.8 1700.01 1584.2 1700.01 1573.9 1700.01 1566 1696.41 1559.9 1689.71 1553.9 1683.01 1551 1673.71 1551 1661.51 1551 1648.71 1554.2 1638.81 1560.6 1632.11 1566.6 1625.71 1574.6 1622.51 1584.6 1622.51 1594.5 1622.51 1602.5 1625.71 1608.2 1632.11 1613.3 1639.11 1616.2 1648.71 1616.2 1661.51L1616.2 1661.51 1616.2 1661.51ZM1659.4 1711.41 1675.4 1711.41 1675.4 1625.01 1698.8 1625.01 1698.8 1611.61 1675.4 1611.61 1675.4 1596.21C1675.4 1582.21 1680.8 1575.21 1692 1575.21 1695.8 1575.21 1699.6 1576.21 1702.5 1577.81L1702.5 1563.41C1699.6 1562.11 1695.8 1561.81 1691 1561.81 1682.4 1561.81 1675.3 1564.41 1669.6 1569.81 1662.9 1576.21 1659.3 1584.51 1659.3 1595.71L1659.3 1612.11 1642.4 1612.11 1642.4 1625.51 1659.3 1625.51 1659.3 1711.51 1659.4 1711.41ZM1725 1684.21C1725 1703.71 1733.6 1713.61 1751.2 1713.61 1757.6 1713.61 1762.4 1712.61 1766.2 1710.31L1766.2 1696.61C1763.3 1698.81 1759.8 1699.81 1755.9 1699.81 1750.5 1699.81 1746.7 1698.51 1744.4 1695.61 1742.1 1692.71 1740.8 1687.91 1740.8 1681.21L1740.8 1625.01 1766.1 1625.01 1766.1 1611.61 1740.9 1611.61 1740.9 1582.21C1735.4 1584.11 1730 1585.71 1724.9 1587.31L1724.9 1611.61 1707.7 1611.61 1707.7 1625.01 1724.9 1625.01 1725 1684.21 1725 1684.21ZM3441.2 1868.11C3435.8 1863.01 3429.4 1860.41 3421.4 1860.41 3413.3 1860.41 3406.7 1863.01 3401.2 1868.51 3395.8 1873.91 3393.2 1880.61 3393.2 1888.31 3393.2 1896.31 3395.8 1903.01 3401.2 1908.11 3406.6 1913.21 3413.3 1915.81 3421.4 1915.81 3429.4 1915.81 3436.1 1913.21 3441.6 1907.81 3447 1902.31 3449.9 1896.01 3449.9 1888.01 3449.5 1879.91 3446.6 1873.21 3441.2 1868.11L3441.2 1868.11ZM3438.6 1905.91C3433.8 1910.71 3428 1912.91 3421 1912.91 3414 1912.91 3408.2 1910.71 3403.4 1905.91 3398.6 1901.11 3396.1 1895.01 3396.1 1887.91 3396.1 1880.91 3398.3 1875.11 3403.1 1870.31 3407.9 1865.51 3413.6 1863.31 3421 1863.31 3428 1863.31 3433.8 1865.51 3438.6 1870.31 3443.4 1875.11 3445.9 1880.91 3445.9 1887.91 3445.9 1895.31 3443.7 1901.01 3438.6 1905.91ZM3424.2 1889.51C3427.1 1888.81 3429.3 1887.61 3430.9 1886.01 3432.5 1884.31 3433.1 1882.11 3433.1 1879.51 3433.1 1876.61 3432.2 1874.41 3430.2 1872.81 3428 1871.01 3424.4 1870.01 3419.9 1870.01L3409.7 1870.01 3409.7 1905.81 3414.8 1905.81 3414.8 1890.81 3418 1890.81C3420.2 1890.81 3422.4 1893.01 3424.4 1897.21L3428.2 1905.81 3434.3 1905.81 3429.5 1896.21C3428 1892.01 3426.1 1890.11 3424.2 1889.51L3424.2 1889.51 3424.2 1889.51ZM3420.7 1886.31 3415.2 1886.31 3415.2 1874.21 3419.7 1874.21C3422.9 1874.21 3425.1 1874.81 3426.4 1875.81 3427.7 1876.81 3428 1878.01 3428 1880.31 3428 1884.41 3425.5 1886.31 3420.7 1886.31L3420.7 1886.31 3420.7 1886.31ZM2528.5 1607.51 2533 1607.51 2533 1571.71 2544.8 1571.71 2544.8 1567.21 2516.6 1567.21 2516.6 1571.71 2528.4 1571.71 2528.5 1607.51 2528.5 1607.51ZM2555.7 1580.61C2555.7 1577.11 2555.7 1574.31 2555.4 1572.61 2555.7 1574.51 2556.4 1575.81 2556.6 1576.71L2570.4 1607.41 2572.6 1607.41 2586.4 1576.41C2586.8 1575.41 2587.1 1574.21 2587.7 1572.61 2587.4 1575.81 2587.4 1578.41 2587.4 1580.31L2587.4 1607.41 2592.2 1607.41 2592.2 1567.11 2586.4 1567.11 2573.9 1595.01C2573.6 1596.01 2572.6 1597.91 2572 1600.11L2571.6 1600.11C2571.3 1598.81 2570.7 1597.51 2569.8 1595.31L2557.3 1567.11 2550.8 1567.11 2550.8 1607.41 2555.3 1607.41 2555.3 1580.51 2555.7 1580.61 2555.7 1580.61Z" fill="#231F1F"/><path d="M866 151 3496 151 3496 2283 866 2283Z" fill="#FFFFFF"/><g clip-path="url(#clip4)"><g clip-path="url(#clip5)"><g clip-path="url(#clip6)"><path d="M448.775 1192.91C391.583 1147.92 330.551 1104.8 288.855 1044.04 201.093 936.902 133.541 812.884 87.3568 682.533 59.4285 597.766 49.8735 506.89 13.8534 425.413-23.7772 366.218 20.3347 301.552 85.1669 282.747 114.009 277.189 164.759 249.958 103.501 269.441 48.5674 309.723 43.2744 232.841 99.5926 227.97 138.028 222.874 152.179 191.42 139.02 163.109 97.7465 136.182 239.067 106.643 167.95 66.4789 93.9166-13.4272 271.552-28.8054 227.715 61.9519 217.237 131.733 351.881 49.1367 320.613 129.73 352.381 168.441 439.535 138.558 437.345 192.834 483.607 196.016 499.486 234.913 542.872 237.908 587.907 258.236 669.462 274.233 684.762 324.944 640.12 360.276 536.773 251.951 531.785 349.769 545.287 494.301 541.841 643.183 594.702 780.812 619.704 864.136 680.353 929.724 735.09 994.635 787.49 1058.19 858.46 1102.96 930.805 1140.63 994.252 1170.55 1062.65 1190.38 1131.81 1202.85 1159.85 1181.4 1209.37 1101.65 1253.1 1135.26 1255.21 1173.09 1166.3 1214.28 1248.93 1210.1 1297.49 1195.45 1331.13 1247.61 1371.1 1200.54 1407.92 1244.16 1524.15 1172.69 1497.95 1261.85 1462.51 1284.71 1410.84 1270.89 1375.36 1302.36 1316.86 1273.12 1270.29 1328.48 1205.5 1321.5 1133.58 1334.38 1060.38 1339.57 987.466 1339.67 867.818 1330.24 745.647 1326.25 631.832 1284.59 567.697 1265.95 505.133 1229.43 448.775 1192.91L448.775 1192.91ZM549.814 1236.72C612.417 1263.76 673.646 1292.3 742.269 1300.93 851.134 1316.05 963.564 1339.37 1072.81 1318.12 1023.37 1295.8 972.236 1326.79 922.978 1302.16 863.91 1314.86 800.502 1298.9 740.422 1291.03 672.143 1260.62 598.424 1239.71 534.475 1200.2 454.53 1171.01 575.789 1237.64 597.383 1243.05 647.328 1271.39 542.449 1228.51 527.641 1216.74 485.797 1193.26 480.465 1198.17 523.506 1221.99 532.168 1227.06 540.731 1232.39 549.814 1236.72L549.814 1236.72ZM430.667 1152.52C491.355 1175 430.402 1109.86 402.631 1113.62 390.316 1092.26 355.563 1078.75 380.074 1067.28 336.002 1082.59 333.89 1009.09 313.18 1019.61 266.534 1004.88 295.032 952.703 239.45 920.64 234.383 886.879 184.252 857.615 168.294 806.708 161.233 780.625 111.632 705.787 142.094 775.44 168.019 842.492 213.633 899.959 251.608 957.309 281.068 1011.93 315.9 1069.05 369.567 1103.12 387.675 1120.49 405.125 1147.07 430.667 1152.52L430.667 1152.52ZM255.909 960.608C258.01 951.436 266.996 980.435 255.909 960.608L255.909 960.608ZM503.365 1179.45C516.789 1173.43 484.03 1171.86 503.365 1179.45L503.365 1179.45ZM536.272 1191.46C532.865 1174.88 521.238 1200.74 536.272 1191.46L536.272 1191.46ZM577.517 1208.64C597.118 1189.96 547.251 1196.86 577.517 1208.64L577.517 1208.64ZM648.172 1248.03C660.104 1230.43 610.002 1241.4 648.172 1248.03L648.172 1248.03ZM512.498 1153.45C542.95 1133.73 473.1 1153.17 512.498 1153.45L512.498 1153.45ZM543.412 1168.86C542.528 1158.46 532.403 1173.54 543.412 1168.86L543.412 1168.86ZM697.96 1265.34C722.815 1281.03 843.082 1299.71 767.781 1271.78 755.153 1274.43 628.149 1235.84 697.96 1265.34L697.96 1265.34ZM452.615 1074.23C450.199 1063.8 414.022 1062.68 452.615 1074.23L452.615 1074.23ZM524.537 1116.2C543.294 1103.12 485.679 1106.1 524.537 1116.2L524.537 1116.2ZM585.069 1153.29C611.956 1143.16 541.497 1143.12 585.069 1153.29L585.069 1153.29ZM423.302 1042.35C452.458 1064.71 540.917 1045.23 467.954 1029.01 434.772 1011.32 359.972 999.201 410.958 1039.67L423.302 1042.35 423.302 1042.35ZM626.077 1166.1C638.234 1145.42 575.131 1154.28 626.077 1166.1L626.077 1166.1ZM564.466 1117.15C635.74 1137.29 504.514 1072.04 546.868 1109.71L556.266 1113.97 564.466 1117.15 564.466 1117.15ZM687.993 1188.54C755.506 1189.19 627 1179.22 687.993 1188.54L687.993 1188.54ZM397.338 1003.3C394.686 990.717 380.693 1004.34 397.338 1003.3L397.338 1003.3ZM802.191 1252.6C803.988 1229.89 780.164 1269.52 802.191 1252.6L802.191 1252.6ZM512.567 1073.84C508.462 1061.87 491.473 1073.34 512.567 1073.84L512.567 1073.84ZM403.741 995.401C442.491 993.064 350.653 978.333 403.741 995.401L403.741 995.401ZM274.813 912.077C269.981 893.478 232.655 878.669 274.813 912.077L274.813 912.077ZM613.262 1126.86C606.172 1118.76 609.923 1128.62 613.262 1126.86L613.262 1126.86ZM823.893 1256.13C823.245 1243.74 812.423 1260.81 823.893 1256.13L823.893 1256.13ZM594.623 1107.61C598.424 1091.65 561.559 1102.76 594.623 1107.61L594.623 1107.61ZM437.689 1008.14C466.54 1005.06 391.465 988.645 437.689 1008.14L437.689 1008.14ZM703.145 1173.09C748.102 1155.28 659.338 1164.41 703.145 1173.09L703.145 1173.09ZM565.085 1079.37C616.866 1086.04 503.444 1044.12 553.693 1075.61L565.085 1079.37 565.085 1079.37ZM745.067 1190.03C793.441 1161.15 777.483 1257.74 827.124 1198.21 876.067 1162.46 784.849 1242.4 845.154 1204.58 888.804 1175.38 953.243 1218.42 993.948 1232.43 1023.21 1231 1051.68 1257.74 1081.71 1241.47 1139.48 1225.9 968.71 1218.39 1013.47 1190.8 960.609 1206.19 921.564 1172.47 895.55 1138.6 836.247 1124.9 767.703 1094.59 738.085 1042.09 726.006 1022.41 755.506 1044.88 727.656 1012.66 691.941 980.896 674.107 944.798 650.127 906.175 621.472 890.905 618.094 845.909 615.216 904.683 615.452 867.582 580.62 842.61 572.106 852.97 571.949 817.254 609.393 835.166 583.193 808.74 577.556 771.719 558.986 733.136 553.418 691.322 544.757 671.181 552.191 628.031 523.811 673.636 513.49 721.852 520.393 614.411 536.469 649.812 557.562 613.684 528.868 617.936 527.719 622.925 541.458 592.433 536.43 549.156 524.115 565.654 531.441 533.316 535.703 446.664 513.185 462.042 526.835 428.212 539.081 307.297 479.768 353.412 455.758 353.756 414.14 362.123 394.5 371.903 456.141 405.891 388.284 384.179 363.154 378.768 359.894 410.221 335.039 396.64 303.968 396.945 353.609 403.082 279.801 447.695 251.382 430.362 214.399 448.009 283.258 492.121 252.108 505.771 255.948 526.295 195.486 498.337 200.209 545.827 164.337 530.704 195.299 602.135 213.25 577.968 274.282 594.505 256.213 632.136 257.745 667.92 247.807 688.749 208.645 618.938 249.035 622.159 217.159 570.407 213.79 603.442 187.316 627.491 181.178 629.219 254.829 661.704 208.605 677.74 249.27 684.035 250.459 719.633 258.747 742.15 283.179 767.614 278.151 714.026 307.425 744.645 288.895 717.364 209.371 667.802 273.398 683.691 273.055 656.264 261.811 634.129 281.451 634.66 300.905 599.484 261.084 721.43 304.891 676.709 317.009 671.416 320.044 641.494 341.835 679.547 373.475 710.697 353.265 733.244 308.613 704.706 316.587 731.829 368.339 741.492 358.598 783.886 368.909 821.173 383.334 807.434 395.914 805.284 405.773 841.5 411.381 814.878 411.842 797.614 456.985 807.287 446.399 833.978 460.55 852.626 491.66 866.659 416.016 757.45 469.417 819.788 525.608 870.538 490.511 891.71 440.075 883.579 471.99 881.006 482.262 926.739 522.2 925.128 558.603 942.461 583.271 1008.98 520.511 981.279 498.76 961.639 421.692 937.433 484.648 974.759 542.724 1001.69 588.908 1017.76 644.951 1051.56 685.037 1080.18 702.37 1112.97 717.561 1119.46 683.849 1135.56 615.992 1106.6 666.389 1097.75 634.935 1092.03 599.573 1076.11 629.681 1115.27 655.302 1136.68 720.399 1134.41 732.105 1136.83 722.206 1158.62 705.217 1160.35 732.488 1162.04 702.065 1178.26 742.269 1180.79 745.067 1190.03L745.067 1190.03ZM682.847 1014.31C664.317 994.939 659.524 958.693 679.548 990.216 689.829 994.36 712.425 1049.49 682.847 1014.31L682.847 1014.31ZM885.504 1143.05C897.053 1142.28 885.848 1151.82 885.504 1143.05L885.504 1143.05ZM653.623 966.824C652.886 937.551 660.29 989.41 653.623 966.824L653.623 966.824ZM633.482 939.74C610.159 894.745 662.824 952.477 633.482 939.74L633.482 939.74ZM389.354 771.267C403.053 767.614 396.11 794.658 389.354 771.267L389.354 771.267ZM583.654 876.558C592.051 844.986 593.514 903.033 583.654 876.558L583.654 876.558ZM446.399 781.116C436.736 763.706 466.619 797.467 446.399 781.116L446.399 781.116ZM564.162 818.865C542.106 769.46 579.815 791.86 569.072 826.957L564.162 818.865 564.162 818.865ZM361.053 683.416C351.193 667.194 334.892 619.625 340.146 605.091 344.859 628.758 390.434 706.896 362.467 637.468 331.592 579.274 399.41 656.333 406.392 670.876 409.652 685.302 387.321 666.928 402.434 700.798 374.86 662.244 386.172 722.088 361.053 683.416L361.053 683.416ZM298.292 640.149C300.865 602.44 312.64 666.005 298.292 640.149L298.292 640.149ZM326.525 649.891C339.988 621.432 349.347 689.554 326.525 649.891L326.525 649.891ZM258.59 597.343C235.228 574.089 218.308 552.691 259.699 582.918 275.618 583.526 224.259 534.239 263.539 567.264 304.813 574.786 283.906 634.974 258.59 597.343L258.59 597.343ZM294.266 596.42C307.847 582.957 301.474 609.658 294.266 596.42L294.266 596.42ZM316.243 603.442C295.641 564.888 341.216 619.625 316.243 603.442L316.243 603.442ZM272.593 561.745C204.658 501.244 357.94 593.347 283.68 572.94L272.593 561.745 272.593 561.745ZM467.267 674.824C437.846 657.216 459.44 550.737 469.496 623.543 498.072 614.293 467.915 661.174 489.205 660.712 485.876 690.281 476.321 700.916 467.267 674.824L467.267 674.824ZM539.268 717.404C542.145 685.302 545.327 739.352 539.268 717.404L539.268 717.404ZM526.767 705.011C529.988 691.322 527.071 721.165 526.767 705.011L526.767 705.011ZM285.899 541.87C242.249 481.643 412.755 602.784 313.867 557.14 303.546 554.42 291.084 553.457 285.899 541.87L285.899 541.87ZM424.569 615.373C420.435 564.662 433.78 623.769 424.569 615.373L424.569 615.373ZM529.831 682.916C537.962 654.035 530.449 702.025 529.831 682.916L529.831 682.916ZM292.616 518.891C318.551 513.332 400.097 564.426 325.219 533.473 316.901 524.262 299.137 528.445 292.616 518.891L292.616 518.891ZM515.366 629.907C518.135 578.047 530.871 598.954 515.483 637.35L515.366 629.907 515.366 629.907ZM311.913 500.831C322.499 485.326 283.827 430.745 317.471 481.26 332.015 492.808 359.55 500.596 335.236 505.467 373.475 539.189 325.916 514.599 311.913 500.831L311.913 500.831ZM504.357 613.723C511.654 554.646 510.809 648.319 504.357 613.723L504.357 613.723ZM289.818 446.281C297.909 442.824 294.109 457.053 289.818 446.281L289.818 446.281ZM340.028 476.163C352.951 449.04 363.851 506.39 340.028 476.163L340.028 476.163ZM481.614 554.911C481.496 544.521 484.295 570.063 481.614 554.911L481.614 554.911ZM473.404 536.773C453.764 488.281 491.699 562.433 473.404 536.773L473.404 536.773ZM461.355 504.966C458.065 484.943 472.56 530.135 461.355 504.966L461.355 504.966ZM480.995 473.05C467.493 449.305 498.033 368.329 501.45 418.549 487.211 457.672 497.346 479.541 507.234 427.063 525.578 385.789 503.287 508.579 480.995 473.05L480.995 473.05ZM501.175 352.646C507.048 345.428 502.482 361.347 501.175 352.646L501.175 352.646ZM467.463 1016.77C459.479 1009.79 468.494 1021.18 467.463 1016.77L467.463 1016.77ZM536.891 1051.87C575.514 1061.8 575.327 1045.88 540.417 1041.12 521.66 1023.67 462.396 1005.14 515.444 1038.97 518.94 1047.88 530.027 1047.64 536.891 1051.87L536.891 1051.87ZM399.793 960.795C421.044 976.684 479.925 1005.75 430.098 966.864 446.9 947.331 397.947 936.942 414.179 923.861 372.866 898.575 381.567 900.843 410.536 901.648 360.895 879.435 417.705 881.124 415.024 869.733 395.884 865.972 319.926 835.971 364.617 872.188 319.199 849.052 353.796 880.82 340.067 877.481 293.608 864.823 381.419 912.853 332.702 900.922 359.324 922.015 404.398 955.011 343.936 923.243 336.002 934.713 387.213 952.094 399.793 960.795L399.793 960.795ZM472.403 1002.53C560.675 1030.96 429.096 967.738 472.403 1002.53L472.403 1002.53ZM844.113 1227.7C845.262 1210.18 832.063 1242.66 844.113 1227.7L844.113 1227.7ZM882.323 1243.78C902.69 1224.06 883.167 1275.23 916.074 1238.95 916.418 1212.97 915.083 1197.64 878.257 1229.2 868.084 1234.84 863.566 1258.74 882.323 1243.78L882.323 1243.78ZM275.853 862.908C269.598 838.319 232.007 838.427 275.853 862.908L275.853 862.908ZM316.626 889.638C301.474 864.518 262.577 866.895 316.626 889.638L316.626 889.638ZM548.744 1029.61C571.419 1049.75 652.817 1044.38 576.25 1032.11 564.928 1015.35 504.288 1019.37 548.744 1029.61L548.744 1029.61ZM867.779 1226.67C902.65 1197.4 833.988 1239.71 867.779 1226.67L867.779 1226.67ZM940.32 1276.5C940.546 1267.1 925.286 1280.61 940.32 1276.5L940.32 1276.5ZM940.438 1263.34C979.06 1222.45 903.033 1265.76 940.438 1263.34L940.438 1263.34ZM175.502 778.897C142.595 731.947 155.057 710.844 123.298 672.487 117.269 643.144 68.8263 576.623 98.2473 647.092 125.174 688.326 133.158 752.157 175.502 778.897L175.502 778.897ZM928.31 1250.34C999.398 1204.42 899.164 1230.36 928.31 1250.34L928.31 1250.34ZM982.556 1271.59C1018.15 1241.05 960.039 1265.22 982.556 1271.59L982.556 1271.59ZM263.765 810.999C273.939 795.847 237.457 809.045 263.765 810.999L263.765 810.999ZM971.234 1257.09C1005.68 1234.88 963.299 1238.29 964.988 1259.12L971.234 1257.09 971.234 1257.09ZM503.709 962.405C502.521 947.371 485.493 963.672 503.709 962.405L503.709 962.405ZM532.59 979.021C523.389 960.451 518.478 981.937 532.59 979.021L532.59 979.021ZM1026.51 1272.09C1070.66 1240.25 999.781 1265.98 1017.27 1278.15L1026.51 1272.09 1026.51 1272.09ZM1009.6 1263.92C1045.58 1233.8 971.656 1277.27 1009.6 1263.92L1009.6 1263.92ZM1095.98 1321.42C1120.12 1305.26 1066.64 1316.2 1095.98 1321.42L1095.98 1321.42ZM285.899 800.069C318.237 807.316 415.21 879.74 358.018 805.097 328.715 796.426 346.283 724.808 316.401 737.466 336.463 770.992 332.889 785.221 290.77 764.128 237.879 738.271 261.045 776.904 271.405 787.568 257.284 790.789 290.044 799.804 285.899 800.069L285.899 800.069ZM138.49 683.652C144.274 659.671 85.1276 551.847 110.562 629.602 119.724 645.904 118.771 676.778 138.49 683.652L138.49 683.652ZM409.073 850.476C392.388 836.551 408.268 848.482 409.073 850.476L409.073 850.476ZM450.082 860.031C450.082 834.636 404.742 849.71 450.082 860.031L450.082 860.031ZM805.677 1084.16C798.891 1066.82 778.868 1083.78 805.677 1084.16L805.677 1084.16ZM822.744 1096.63C820.211 1086.92 812.885 1098.51 822.744 1096.63L822.744 1096.63ZM963.682 1185.43C977.224 1175.42 946.762 1184.13 963.682 1185.43L963.682 1185.43ZM212.101 702.448C250.881 687.443 170.553 691.744 212.101 702.448L212.101 702.448ZM774.37 1056.66C773.919 1031.57 749.634 1062.91 774.37 1056.66L774.37 1056.66ZM196.792 666.732C221.686 658.336 173.734 661.213 196.792 666.732L196.792 666.732ZM269.058 701.75C268.636 693.511 261.428 704.903 269.058 701.75L269.058 701.75ZM1150.76 1242.44C1182.79 1235.95 1255.79 1258.74 1267.56 1233.96 1228.67 1233 1133.04 1206.49 1128.51 1240.25L1137.03 1241.59 1150.76 1242.44 1150.76 1242.44ZM292.037 707.544C292.616 682.11 272.21 706.592 292.037 707.544L292.037 707.544ZM102.008 575.71C93.3765 527.257 69.17 568.374 102.008 575.71L102.008 575.71ZM147.308 587.101C147.888 571.526 105.838 573.097 147.308 587.101L147.308 587.101ZM173.204 599.838C165.721 593.769 167.371 607.468 173.204 599.838L173.204 599.838ZM336.188 704.363C343.867 697.302 318.011 699.148 336.188 704.363L336.188 704.363ZM155.98 571.143C151.57 534.544 103.462 565.654 155.98 571.143L155.98 571.143ZM63.0324 510.838C61.7264 493.957 53.9783 517.202 63.0324 510.838L63.0324 510.838ZM76.8788 500.409C74.6201 480.376 64.9866 502.933 76.8788 500.409L76.8788 500.409ZM153.22 545.974C185.518 533.316 94.4076 519.735 146.621 543.598L153.22 545.974 153.22 545.974ZM1175.28 1177.3C1195.95 1158.36 1149.04 1171.44 1175.28 1177.3L1175.28 1177.3ZM1298.75 1241.29C1307.04 1216.81 1277.89 1244.51 1298.75 1241.29L1298.75 1241.29ZM161.037 505.967C164.454 482.262 135.416 510.681 161.037 505.967L161.037 505.967ZM52.3678 433.161C46.5347 399.714 47.3399 340.98 103.157 360.817 28.6621 375.625 154.752 453.449 138.834 391.995 170.17 393.537 200.131 373.475 183.672 403.887 245.431 397.102 288.207 343.553 347.854 351.075 394.303 344.898 445.093 340.253 495.156 321.536 536.312 318.58 575.936 274.272 553.389 247.994 497.267 243.241 438.494 250.262 376.47 262.616 307.729 276.884 245.284 304.037 175.924 315.703 108.293 324.796 189.505 340.715 170.13 344.28 134.876 356.515 212.209 364.764 165.564 377.687 136.762 372.208 106.761 362.309 119.076 331.926 54.322 340.371-2.60506 367.219 48.5674 433.122L52.3678 433.161 52.3678 433.161ZM208.458 353.677C223.611 297.752 289.778 399.714 233.313 361.121 226.596 356.054 215.47 351.949 208.458 353.677L208.458 353.677ZM211.404 326.554C233.313 310.253 223.031 335.726 211.404 326.554L211.404 326.554ZM239.215 327.016C241.218 301.277 302.937 340.636 249.388 336.266L239.215 327.016 239.215 327.016ZM277.268 311.716C291.192 295.444 281.304 326.132 277.268 311.716L277.268 311.716ZM287.019 305.196C310.185 277.385 418.088 287.431 339.105 302.466 317.933 286.508 301.71 311.863 287.019 305.196L287.019 305.196ZM427.868 283.483C424.382 207.486 497.876 310.449 427.868 283.483L427.868 283.483ZM467.846 283.248C482.458 244.969 524.577 267.869 474.632 275.539 475.702 279.644 473.139 295.336 467.846 283.248L467.846 283.248ZM145.276 486.327C188.926 459.587 98.9347 463.122 145.276 486.327L145.276 486.327ZM177.574 495.263C192.883 479.001 144.274 488.664 177.574 495.263L177.574 495.263ZM82.4468 427.79C107.38 408.611 52.9079 420.503 82.4468 427.79L82.4468 427.79ZM1371.64 1234.3C1372.36 1212.05 1352.57 1244.31 1371.64 1234.3L1371.64 1234.3ZM1240.64 1144.88C1244.36 1119.3 1223.8 1147.11 1240.64 1144.88L1240.64 1144.88ZM1407.66 1242.94C1442.53 1243.05 1513.33 1232.07 1437.46 1232.11 1425.53 1233.96 1368.07 1233.58 1407.66 1242.94L1407.66 1242.94ZM205.964 479.571C234.197 477.656 250.115 448.461 200.474 450.111 123.563 442.176 268.331 476.468 190.615 466.648 180.186 473.551 205.345 481.496 205.964 479.571L205.964 479.571ZM230.819 492.16C227.863 474.052 222.069 501.784 230.819 492.16L230.819 492.16ZM260.318 413.521C272.554 398.329 243.359 409.455 260.318 413.521L260.318 413.521ZM166.409 256.586C216.815 239.479 285.713 220.222 309.497 265.031 285.291 235.915 299.716 207.22 322.577 249.84 354.915 292.92 371.099 230.239 350.074 215.774 374.054 245.538 401.285 259.621 366.11 217.659 404.359 171.662 289.582 223.679 263.5 223.139 250.96 228.776 133.924 252.982 166.409 256.586L166.409 256.586ZM195.947 200.052C224.681 178.379 295.337 212.975 249.997 178.487 245.549 174.579 150.726 204.648 195.947 200.052L195.947 200.052ZM300.708 204.382C334.312 205.227 286.214 159.19 326.26 180.058 319.7 158.582 279.615 154.555 260.014 145.963 248.927 165.603 282.561 204.648 300.708 204.382L300.708 204.382ZM214.321 109.285C225.948 93.5235 193.915 117.308 214.321 109.285L214.321 109.285ZM257.136 119.527C311.333 112.358 243.32 96.2044 246.197 118.958L257.136 119.527 257.136 119.527ZM177.191 57.0025C139.02 7.1754 248.966 65.3693 210.177 13.1951 177.535-12.7692 146.199 42.4688 177.191 57.0025L177.191 57.0025ZM666.85 320.731C684.35 289.729 594.623 278.917 655.076 309.752 660.634 311.598 659.377 322.872 666.85 320.731L666.85 320.731Z" transform="matrix(1.00016 0 0 1 1449 252)"/><path d="M311.543 43.9652C307.676 59.2564 305.275 84.908 304.375 120.914 304.375 127.991 301.189 131.53 294.805 131.53 288.415 131.53 283.97 128.441 281.453 122.288 274.613 105.641 268.132 94.028 261.955 87.4008 254.665 79.6609 244.973 74.9793 232.886 73.3864 219.893 71.3252 187.523 70.3038 135.77 70.3038 123.92 70.3038 116.156 71.5624 112.52 74.0795 110.24 75.6664 109.103 79.0894 109.103 84.3365L109.103 239.261C109.103 244.508 112.405 247.001 119.001 246.788 139.309 246.551 168.712 245.171 207.234 242.678 214.762 241.754 219.844 239.31 222.459 235.315 225.098 231.327 227.663 221.021 230.156 204.368 231.743 195.248 237.112 191.709 246.232 193.777 253.978 195.37 257.303 198.908 256.16 204.368 249.77 235.388 247.703 275.741 249.983 325.445 250.226 331.361 246.469 334.565 238.705 335.021 232.315 335.709 228.326 332.285 226.733 324.758 220.823 296.261 209.8 281.037 193.743 279.085 177.667 277.164 151.493 276.191 115.25 276.191 111.146 276.191 109.103 277.663 109.103 280.63L109.103 434.533C109.103 445.933 113.304 453.697 121.737 457.783 128.365 461.206 142.61 464.289 164.486 467.025 175.673 468.162 180.561 473.08 179.212 481.726 177.832 489.253 167.812 492.22 149.097 490.627 95.0644 486.286 50.4857 486.523 15.3858 491.32 5.57265 492.67 0.684318 488.682 0.684318 479.349 0.684318 473.409 5.57265 469.992 15.3858 469.086 37.7298 466.569 48.8927 446.954 48.8927 410.262L48.8927 117.491C48.8927 102.461 46.2115 90.8907 40.8671 82.7922 35.4985 74.6936 25.5212 67.3307 10.9413 60.7278 1.82128 56.6238-1.59569 51.0423 0.684318 43.9652 1.82128 39.6423 3.65136 37.2407 6.14417 36.7908 8.42417 36.1037 14.4799 36.5537 24.2626 38.1649 38.6358 40.4449 72.5014 41.5879 125.841 41.5879 188.782 41.5879 243.143 40.2077 288.986 37.4778 304.253 36.5537 311.902 37.8122 311.902 41.2292 311.902 42.1594 311.786 43.0593 311.543 43.9652L311.543 43.9652Z" transform="matrix(1.00016 0 0 1 1449 1683.37)"/><path d="M533.333 478.114C533.333 487.234 528.201 491.222 517.944 490.079 486.498 487.112 447.501 487.562 400.995 491.435 391.638 492.359 385.892 492.122 383.71 490.773 381.545 489.392 380.475 485.641 380.475 479.464 380.475 474.004 386.677 469.395 399.098 465.62 411.544 461.868 417.739 450.632 417.739 431.942L417.739 122.433C417.739 103.956 415.058 90.3915 409.714 81.7214 404.345 73.0574 394.939 66.3329 381.496 61.5601 374.419 59.043 370.881 55.5044 370.881 50.9444 370.881 44.1044 376.012 38.9729 386.269 35.5559 401.779 30.5399 417.861 22.8 434.508 12.2999 448.188 4.08577 456.858 0 460.488 0 468.921 0 473.153 5.79425 473.153 17.4314 473.153 16.5316 472.697 27.9316 471.772 51.6315 471.11 74.1944 470.873 96.4229 471.11 118.323L472.46 423.722C472.46 437.639 475.883 447.738 482.723 454.007 489.563 460.275 501.315 464.434 517.944 466.477 528.201 467.614 533.333 471.487 533.333 478.114L533.333 478.114Z" transform="matrix(1.00016 0 0 1 1449 1683.37)"/><path d="M842.653 457.947C842.653 462.744 833.935 469.967 816.503 479.652 799.047 489.344 785.082 494.189 774.606 494.189 765.699 494.189 757.843 489.867 751.003 481.196 744.163 472.532 739.36 468.21 736.63 468.21 734.587 468.21 723.759 472.885 704.138 482.218 684.549 491.575 664.813 496.257 644.98 496.257 626.29 496.257 610.658 490.773 598.121 479.847 584.441 467.754 577.601 451.344 577.601 430.586 577.601 391.139 622.751 362.873 713.046 345.776 728.531 342.809 736.417 336.535 736.63 326.965L737.323 305.071C738.697 267.685 722.166 248.995 687.728 248.995 677.921 248.995 668.637 257.756 659.845 275.309 651.084 292.886 638.474 302.335 622.058 303.715 603.368 305.521 594.011 297.659 594.011 280.106 594.011 269.156 607.928 256.406 635.738 241.796 664.928 226.529 692.982 218.88 719.886 218.88 766.155 218.88 789.07 240.896 788.62 284.903L787.24 425.789C787.027 440.612 793.302 448.018 806.052 448.018 808.569 448.018 813.366 447.452 820.419 446.309 827.502 445.172 831.606 444.601 832.749 444.601 839.352 444.601 842.653 449.064 842.653 457.947L842.653 457.947ZM737.323 379.976C737.56 374.273 736.229 370.498 733.377 368.692 730.526 366.868 726.039 366.509 719.886 367.652 664.928 377.459 637.453 395.365 637.453 421.351 637.453 447.568 651.698 460.676 680.201 460.676 691.601 460.676 703.36 458.518 715.423 454.195 729.577 449.161 736.63 443.13 736.63 436.052L737.323 379.976Z" transform="matrix(1.00016 0 0 1 1449 1683.37)"/><path d="M1096.92 418.597C1096.92 442.771 1087.6 461.99 1069.04 476.235 1050.46 490.487 1025.1 497.613 992.939 497.613 971.519 497.613 950.069 495.333 928.649 490.773 910.172 486.662 899.459 482.911 896.492 479.488 894.662 476.284 893.762 460.683 893.762 432.629 893.762 420.542 896.492 414.274 901.976 413.824 907.442 413.131 912.117 416.104 915.99 422.707 933.087 452.584 960.685 467.523 998.758 467.523 1030.89 467.523 1046.97 456.335 1046.97 433.985 1046.97 424.202 1043.34 415.982 1036.02 409.379 1028.04 401.852 1012.56 393.067 989.522 383.041 956.222 368.224 933.993 355.231 922.83 344.044 910.737 332.194 904.706 316.234 904.706 296.163 904.706 271.533 914.16 252.393 933.087 238.713 950.64 225.483 974.127 218.88 1003.53 218.88 1022.01 218.88 1038.87 220.352 1054.16 223.325 1070.58 226.292 1079.13 229.928 1079.82 234.269 1081.62 247.025 1085.4 265.502 1091.1 289.682 1091.79 292.625 1088.58 295.027 1081.52 296.851 1074 298.443 1068.99 297.185 1066.47 293.099 1048.47 263.672 1025.67 248.97 998.07 248.97 966.838 248.97 951.212 258.996 951.212 279.066 951.212 290.248 955.437 299.131 963.87 305.733 971.398 311.436 989.066 320.344 1016.88 332.431 1046.07 344.968 1065.9 356.252 1076.4 366.272 1090.08 379.265 1096.92 396.721 1096.92 418.597L1096.92 418.597Z" transform="matrix(1.00016 0 0 1 1449 1683.37)"/><path d="M1499.27 478.448C1499.27 486.425 1493.9 490.657 1483.19 491.107 1467.23 491.344 1446.35 492.481 1420.61 494.524 1407.83 497.041 1398.71 495.454 1393.25 489.751 1357.22 450.991 1326.65 410.401 1301.57 367.987 1299.53 364.351 1296.92 362.521 1293.71 362.521 1289.84 362.521 1283.12 365.944 1273.55 372.784 1262.81 378.7 1257.47 387.151 1257.47 398.077 1257.47 405.841 1257.68 417.004 1258.16 431.614 1258.61 446.194 1262.24 455.764 1269.08 460.324 1273.88 463.534 1284.95 466.027 1302.26 467.857 1312.97 469.231 1318.34 473.22 1318.34 479.822 1318.34 485.076 1317.48 488.328 1315.78 489.563 1314.07 490.821 1309.55 491.107 1302.26 490.42 1279.46 488.377 1240.94 489.514 1186.67 493.837 1172.99 494.98 1165.58 493.265 1164.44 488.705 1163.99 487.118 1163.75 484.838 1163.75 481.865 1163.75 474.812 1170.71 469.444 1184.63 465.814 1197.17 462.604 1203.44 447.902 1203.44 421.685L1203.44 122.768C1203.44 104.078 1201.61 91.0847 1197.95 83.7947 1192.94 74.4376 1182.44 67.1416 1166.48 61.8945 1158.98 59.4017 1155.2 55.8632 1155.2 51.3031 1155.2 44.6759 1160.57 39.5444 1171.28 35.9146 1188.38 30.2116 1204.67 22.3501 1220.18 12.3059 1232.72 4.11009 1240.49 0 1243.43 0 1252.79 0 1257.47 5.91585 1257.47 17.7901 1257.47 16.1789 1257.35 27.4817 1257.11 51.6375 1256.9 68.2846 1256.78 90.6347 1256.78 118.682L1257.47 332.765C1257.47 338.699 1259.06 341.648 1262.24 341.648 1265.66 341.648 1270.91 338.699 1277.99 332.765 1296.92 317.942 1320.17 298.565 1347.74 274.622 1353.23 268.925 1355.96 264.365 1355.96 260.942 1355.96 254.795 1346.72 250.448 1328.27 247.955 1320.29 247.025 1316.51 242.586 1316.96 234.603 1317.65 226.626 1321.64 223.203 1328.93 224.346 1345.37 226.626 1369.31 227.885 1400.75 228.122 1422.65 228.335 1444.43 228.456 1466.09 228.456 1473.14 228.694 1476.68 232.895 1476.68 241.115 1476.68 248.855 1471.1 253.081 1459.94 253.774 1442.36 254.436 1425.83 258.425 1410.35 265.739 1388.69 275.528 1365.53 292.747 1340.9 317.377 1339.1 318.751 1338.17 320.459 1338.17 322.502 1338.17 325.688 1342.04 333.337 1349.81 345.424 1378.31 388.744 1405.22 421.448 1430.51 443.579 1446.71 457.478 1461.86 464.434 1475.99 464.434 1486.49 464.434 1493 465.17 1495.49 466.665 1498.01 468.143 1499.27 472.083 1499.27 478.448L1499.27 478.448Z" transform="matrix(1.00016 0 0 1 1449 1683.37)"/></g></g></g><path d="M1243 117 3183 117 3183 2299 1243 2299Z" fill="#FFFFFF"/><g clip-path="url(#clip7)"><g clip-path="url(#clip8)"><g clip-path="url(#clip9)"><path d="M1803.03 601.363 2039.13 365.265 2055.01 265.743C1624.1-123.872 942.277-79.4053 554.779 358.912 447.846 480.667 367.382 633.125 325.033 789.818L409.732 778.172 880.87 700.884 916.867 663.829C1126.5 434.082 1481.17 402.32 1722.57 598.187L1803.03 601.363Z" fill="#EA4335" transform="matrix(1.0006 0 0 1 844 147)"/><path d="M2373.69 782.407C2319.69 583.365 2208.53 403.379 2053.95 266.802L1723.63 597.128C1863.38 711.472 1942.78 882.987 1939.61 1062.97L1939.61 1121.2C2102.65 1121.2 2233.94 1252.49 2233.94 1415.53 2233.94 1578.58 2102.65 1706.69 1939.61 1706.69L1349.89 1706.69 1291.66 1769.15 1291.66 2121.71 1349.89 2176.76 1939.61 2176.76C2362.04 2179.94 2708.25 1843.26 2711.43 1420.83 2712.49 1166.73 2586.5 926.396 2373.69 782.407" fill="#4285F4" transform="matrix(1.0006 0 0 1 844 147)"/><path d="M761.232 2178.88 1349.89 2178.88 1349.89 1707.74 761.232 1707.74C718.883 1707.74 678.651 1698.22 640.536 1681.28L556.896 1706.69 319.739 1942.78 298.564 2023.25C431.965 2122.77 593.952 2179.94 761.232 2178.88" fill="#34A853" transform="matrix(1.0006 0 0 1 844 147)"/><path d="M761.232 650.065C337.737 653.241-2.11748 997.331 0 1420.83 1.05874 1656.92 111.167 1879.26 298.564 2023.25L639.478 1682.33C491.254 1615.63 425.613 1440.94 492.313 1292.72 559.014 1144.5 733.705 1078.85 881.929 1145.55 947.57 1175.2 999.448 1227.08 1029.09 1292.72L1370.01 951.805C1226.02 760.174 1000.51 649.006 761.232 650.065" fill="#FBBC05" transform="matrix(1.0006 0 0 1 844 147)"/></g></g></g><rect x="706.5" y="71.5" width="2988" height="2333" stroke="#FFFFFF" stroke-width="4.58333" stroke-miterlimit="8" fill="#FFFFFF"/><g clip-path="url(#clip10)"><g clip-path="url(#clip11)"><path d="M2101.01 1731.18C2101.01 1677.21 2109 1623.23 2121 1569.26 2123 1557.27 2121 1553.27 2109 1549.27 2039.04 1527.28 1971.07 1499.29 1911.1 1455.31 1889.11 1439.32 1869.12 1421.33 1851.13 1401.34 1801.15 1341.37 1801.15 1273.4 1853.13 1213.43 1899.1 1159.45 1961.07 1127.47 2023.05 1099.48 2051.03 1087.49 2079.02 1075.49 2107.01 1067.5 2117 1065.5 2119 1059.5 2117 1049.5 2103.01 979.538 2091.01 909.571 2099.01 837.605 2103.01 803.621 2109 769.637 2123 739.651 2150.99 677.68 2202.96 649.693 2270.93 659.689 2334.9 667.685 2390.87 699.67 2444.85 735.653 2476.83 757.643 2506.82 781.631 2534.8 807.619 2544.8 815.615 2548.8 815.615 2558.79 807.619 2610.77 759.642 2668.74 717.661 2734.71 685.676 2758.7 673.682 2784.69 665.686 2812.67 659.689 2890.64 645.695 2948.61 679.679 2976.6 753.644 2996.59 809.618 2998.59 869.59 2994.59 929.561 2992.59 969.543 2986.59 1009.52 2976.6 1049.5 2974.6 1059.5 2976.6 1065.5 2986.59 1067.5 3052.56 1087.49 3116.53 1115.47 3174.5 1153.46 3200.49 1171.45 3222.48 1191.44 3244.47 1213.43 3294.45 1271.4 3296.44 1341.37 3246.47 1401.34 3202.49 1453.31 3146.52 1485.3 3086.54 1513.29 3054.56 1527.28 3022.57 1541.27 2990.59 1551.27 2980.59 1555.27 2978.59 1557.27 2980.59 1569.26 2996.59 1641.23 3006.58 1713.19 2998.59 1787.16 2994.59 1827.14 2984.59 1867.12 2962.6 1903.1 2936.61 1941.08 2900.63 1961.07 2854.65 1963.07 2808.67 1963.07 2764.7 1949.08 2724.71 1927.09 2664.74 1897.1 2612.77 1857.12 2562.79 1813.14 2554.79 1805.15 2550.8 1805.15 2542.8 1813.14 2484.83 1867.12 2420.86 1913.1 2346.89 1943.08 2320.91 1953.08 2292.92 1961.07 2264.93 1963.07 2204.96 1967.07 2158.98 1939.09 2132.99 1885.11 2109 1841.13 2101.01 1791.15 2101.01 1731.18M2548.8 1069.5C2506.82 1069.5 2466.84 1071.49 2424.86 1073.49 2416.86 1073.49 2410.86 1077.49 2406.86 1083.49 2360.89 1151.46 2318.91 1223.42 2282.92 1299.39 2280.92 1305.38 2278.92 1309.38 2282.92 1315.38 2318.91 1391.34 2360.89 1463.31 2408.86 1533.28 2412.86 1539.27 2418.86 1541.27 2424.86 1541.27 2506.82 1547.27 2588.78 1547.27 2670.74 1541.27 2680.74 1541.27 2686.73 1537.27 2692.73 1529.28 2738.71 1461.31 2780.69 1389.34 2814.67 1315.38 2816.67 1309.38 2816.67 1305.38 2814.67 1299.39 2778.69 1225.42 2738.71 1153.46 2690.73 1085.49 2684.73 1077.49 2680.74 1075.49 2670.74 1073.49 2630.76 1071.49 2588.78 1071.49 2548.8 1069.5M2166.98 1715.19C2166.98 1729.18 2166.98 1741.18 2166.98 1751.17 2168.98 1785.16 2172.97 1819.14 2186.97 1851.13 2202.96 1885.11 2224.95 1897.1 2260.93 1895.11 2280.92 1893.11 2298.92 1889.11 2318.91 1881.11 2384.87 1853.13 2440.85 1811.15 2494.82 1763.17 2502.82 1757.17 2498.82 1753.17 2494.82 1747.18 2454.84 1707.19 2420.86 1663.22 2386.87 1617.24 2380.88 1609.24 2374.88 1605.24 2364.88 1605.24 2308.91 1599.25 2254.94 1589.25 2200.96 1577.26 2190.97 1575.26 2186.97 1575.26 2184.97 1587.25 2174.97 1629.23 2168.98 1673.21 2166.98 1715.19M2930.62 899.576C2930.62 891.579 2930.62 885.582 2930.62 877.586 2928.62 837.605 2926.62 797.624 2908.63 759.642 2896.63 733.654 2876.64 721.659 2848.66 721.659 2832.66 721.659 2816.67 723.659 2800.68 729.656 2724.71 755.643 2662.74 803.621 2604.77 855.596 2598.77 861.593 2602.77 863.593 2606.77 869.59 2646.75 911.57 2682.73 957.548 2718.72 1003.53 2722.72 1009.52 2728.71 1011.52 2734.71 1011.52 2790.68 1017.52 2846.66 1027.52 2902.63 1041.51 2910.63 1043.51 2914.62 1043.51 2916.62 1033.51 2922.62 989.533 2928.62 945.554 2930.62 899.576M3216.48 1309.38C3214.48 1295.39 3210.49 1281.4 3202.49 1269.4 3192.49 1253.41 3180.5 1241.41 3166.51 1229.42 3108.53 1181.44 3040.57 1153.46 2968.6 1129.47 2958.6 1125.47 2956.6 1131.47 2954.61 1139.46 2938.61 1193.44 2918.62 1245.41 2894.63 1297.39 2890.64 1305.38 2892.64 1311.38 2894.63 1317.38 2916.62 1369.35 2936.61 1421.33 2952.61 1473.3 2956.6 1483.3 2958.6 1487.3 2970.6 1483.3 3018.58 1467.31 3064.55 1449.32 3108.53 1423.33 3142.52 1403.34 3174.5 1381.35 3198.49 1349.36 3210.49 1337.37 3216.48 1323.38 3216.48 1309.38M1881.11 1307.38C1883.11 1331.37 1893.11 1349.36 1909.1 1365.36 1971.07 1429.33 2049.03 1459.31 2130.99 1487.3 2138.99 1489.3 2140.99 1485.3 2140.99 1479.3 2156.98 1423.33 2176.97 1369.35 2200.96 1317.38 2202.96 1311.38 2202.96 1307.38 2200.96 1299.39 2176.97 1247.41 2156.98 1193.44 2140.99 1137.46 2136.99 1127.47 2132.99 1127.47 2125 1129.47 2091.01 1141.46 2057.03 1153.46 2025.04 1169.45 1981.07 1191.44 1937.09 1215.43 1905.1 1253.41 1893.11 1269.4 1883.11 1287.39 1881.11 1307.38M2930.62 1747.18C2930.62 1681.21 2922.62 1633.23 2912.63 1585.25 2910.63 1577.26 2910.63 1571.26 2898.63 1575.26 2844.66 1589.25 2788.68 1599.25 2732.71 1605.24 2722.72 1605.24 2718.72 1611.24 2712.72 1617.24 2678.74 1663.22 2644.75 1705.2 2604.77 1745.18 2596.77 1753.17 2598.77 1757.17 2606.77 1763.17 2632.76 1787.16 2660.74 1809.15 2690.73 1829.14 2732.71 1857.12 2776.69 1883.11 2826.67 1891.11 2874.64 1899.1 2896.63 1885.11 2914.62 1841.13 2928.62 1805.15 2930.62 1769.17 2930.62 1747.18M2250.94 723.659C2230.95 723.659 2210.96 727.657 2198.96 745.648 2188.97 759.642 2180.97 773.635 2176.97 789.627 2156.98 871.589 2166.98 953.55 2184.97 1035.51 2186.97 1045.51 2192.97 1043.51 2198.96 1041.51 2254.94 1027.52 2310.91 1017.52 2366.88 1013.52 2374.88 1013.52 2378.88 1009.52 2384.87 1003.53 2418.86 957.548 2452.84 913.569 2492.82 873.588 2500.82 865.592 2498.82 861.593 2492.82 855.596 2456.84 823.611 2418.86 793.626 2376.88 769.637 2336.9 745.648 2296.92 725.658 2250.94 723.659M2466.84 1611.24C2492.82 1645.22 2516.81 1673.21 2542.8 1701.2 2548.8 1709.19 2552.8 1703.2 2556.79 1699.2 2576.78 1677.21 2594.78 1655.22 2614.77 1633.23 2618.76 1627.23 2626.76 1621.24 2628.76 1613.24 2574.79 1613.24 2522.81 1613.24 2466.84 1611.24M2244.94 1227.42C2270.93 1177.44 2296.92 1133.47 2326.9 1085.49 2286.92 1091.48 2250.94 1097.48 2214.96 1107.48 2206.96 1109.48 2204.96 1111.48 2206.96 1119.47 2216.95 1153.46 2228.95 1189.44 2244.94 1227.42M2770.69 1531.28C2812.67 1525.28 2848.66 1517.28 2884.64 1509.29 2890.64 1507.29 2892.64 1505.29 2890.64 1499.29 2878.64 1463.31 2868.65 1427.33 2850.66 1389.34 2826.67 1437.32 2802.68 1483.3 2770.69 1531.28M2466.84 1005.53C2522.81 1001.53 2576.78 1003.53 2630.76 1005.53 2604.77 971.542 2580.78 943.555 2552.8 915.568 2550.8 913.569 2548.8 909.571 2542.8 913.569 2516.81 941.556 2492.82 971.542 2466.84 1005.53M2852.65 1227.42C2866.65 1191.44 2878.64 1157.45 2888.64 1121.47 2890.64 1115.47 2892.64 1109.48 2882.64 1107.48 2846.66 1099.48 2810.67 1091.48 2768.69 1087.49 2800.68 1131.47 2826.67 1177.44 2852.65 1227.42M2326.9 1531.28C2296.92 1485.3 2270.93 1439.32 2244.94 1391.34 2228.95 1429.33 2216.95 1463.31 2206.96 1499.29 2204.96 1503.29 2204.96 1507.29 2210.96 1509.29 2248.94 1517.28 2284.92 1525.28 2326.9 1531.28" fill="#414042" transform="matrix(1 0 0 1.00017 -333.814 -232.641)"/><path d="M2001.06 2246.94C2021.05 2276.93 2039.04 2304.91 2061.03 2336.9 2043.04 2336.9 2027.04 2336.9 2013.05 2336.9 2007.05 2336.9 2005.05 2330.9 2003.05 2326.9 1989.06 2304.91 1973.07 2282.92 1959.08 2260.93 1953.08 2252.94 1947.08 2248.94 1937.09 2248.94 1929.09 2248.94 1927.09 2250.94 1927.09 2258.93 1927.09 2280.92 1927.09 2300.91 1927.09 2322.9 1927.09 2332.9 1925.09 2334.9 1915.1 2334.9 1881.11 2334.9 1881.11 2334.9 1881.11 2300.91 1881.11 2240.94 1881.11 2180.97 1881.11 2121 1881.11 2109 1883.11 2105.01 1895.11 2107.01 1925.09 2109 1955.08 2105.01 1983.06 2109 2021.05 2113 2041.04 2129 2045.04 2158.98 2051.03 2204.96 2039.04 2230.95 2001.06 2246.94M1927.09 2180.97C1927.09 2212.96 1927.09 2212.96 1959.08 2210.96 1963.07 2210.96 1969.07 2210.96 1973.07 2208.96 1993.06 2204.96 1999.06 2198.96 1999.06 2176.97 1999.06 2158.98 1991.06 2152.98 1971.07 2150.99 1967.07 2150.99 1961.07 2150.99 1957.08 2150.99 1927.09 2150.99 1927.09 2150.99 1927.09 2180.97" fill="#414042" transform="matrix(1 0 0 1.00017 -333.814 -232.641)"/><path d="M3066.55 2340.9C3030.57 2340.9 3002.58 2334.9 2980.59 2308.91 2974.6 2300.91 2972.6 2296.92 2982.59 2290.92 2984.59 2290.92 2986.59 2288.92 2988.59 2286.92 3000.58 2274.93 3008.58 2268.93 3024.57 2286.92 3040.57 2302.91 3064.55 2302.91 3086.54 2296.92 3096.54 2292.92 3102.54 2286.92 3102.54 2276.93 3102.54 2266.93 3098.54 2258.93 3088.54 2254.94 3072.55 2246.94 3056.56 2244.94 3040.57 2238.94 3032.57 2236.94 3026.57 2234.95 3018.58 2230.95 2990.59 2218.95 2976.6 2198.96 2976.6 2170.98 2976.6 2140.99 2992.59 2121 3020.57 2111 3060.56 2097.01 3112.53 2107.01 3134.52 2134.99 3140.52 2142.99 3144.52 2146.99 3132.52 2152.98 3130.52 2154.98 3126.52 2156.98 3124.53 2158.98 3114.53 2168.98 3106.53 2174.97 3094.54 2158.98 3080.55 2142.99 3058.56 2142.99 3038.57 2148.99 3030.57 2150.99 3022.57 2156.98 3022.57 2166.98 3022.57 2176.97 3028.57 2184.97 3036.57 2186.97 3054.56 2192.97 3074.55 2198.96 3092.54 2202.96 3134.52 2214.96 3150.51 2240.94 3144.52 2280.92 3140.52 2310.91 3118.53 2330.9 3084.54 2336.9 3080.55 2340.9 3070.55 2340.9 3066.55 2340.9" fill="#414042" transform="matrix(1 0 0 1.00017 -333.814 -232.641)"/><path d="M2234.95 2310.91C2222.95 2328.9 2206.96 2336.9 2186.97 2338.9 2178.97 2338.9 2170.98 2340.9 2162.98 2340.9 2107.01 2338.9 2083.02 2312.91 2081.02 2256.94 2081.02 2246.94 2081.02 2236.94 2083.02 2226.95 2093.01 2170.98 2144.99 2142.99 2198.96 2166.98 2224.95 2178.97 2234.95 2198.96 2236.94 2224.95 2240.94 2260.93 2240.94 2260.93 2204.96 2260.93 2180.97 2260.93 2158.98 2260.93 2134.99 2260.93 2123 2260.93 2123 2264.93 2125 2274.93 2130.99 2300.91 2164.98 2314.91 2190.97 2298.92 2204.96 2288.92 2210.96 2294.92 2220.95 2302.91 2226.95 2304.91 2230.95 2308.91 2234.95 2310.91M2160.98 2232.95C2168.98 2232.95 2176.97 2232.95 2184.97 2232.95 2192.97 2232.95 2196.96 2230.95 2194.96 2222.95 2190.97 2206.96 2184.97 2198.96 2168.98 2196.96 2148.99 2194.96 2136.99 2200.96 2130.99 2216.95 2125 2232.95 2125 2234.95 2142.99 2234.95 2148.99 2232.95 2154.98 2232.95 2160.98 2232.95" fill="#414042" transform="matrix(1 0 0 1.00017 -333.814 -232.641)"/><path d="M2376.88 2318.91C2354.89 2336.9 2334.9 2342.89 2312.91 2340.9 2286.92 2336.9 2268.93 2320.91 2266.93 2296.92 2262.93 2268.93 2274.93 2246.94 2300.91 2236.94 2318.91 2228.95 2338.9 2228.95 2356.89 2226.95 2362.89 2226.95 2372.88 2230.95 2374.88 2218.95 2374.88 2208.96 2372.88 2198.96 2362.89 2196.96 2344.89 2190.97 2326.9 2188.97 2310.91 2202.96 2302.91 2210.96 2298.92 2208.96 2290.92 2202.96 2266.93 2186.97 2266.93 2180.97 2292.92 2168.98 2324.9 2154.98 2356.89 2154.98 2388.87 2166.98 2404.87 2172.97 2414.86 2186.97 2414.86 2204.96 2416.86 2244.94 2414.86 2286.92 2416.86 2326.9 2416.86 2332.9 2414.86 2334.9 2408.86 2334.9 2404.87 2334.9 2398.87 2334.9 2394.87 2334.9 2380.88 2338.9 2372.88 2336.9 2376.88 2318.91M2372.88 2272.93C2370.88 2270.93 2380.88 2256.94 2366.88 2258.93 2352.89 2258.93 2338.9 2260.93 2324.9 2266.93 2308.91 2274.93 2304.91 2296.92 2316.91 2304.91 2330.9 2312.91 2342.89 2308.91 2354.89 2302.91 2366.88 2294.92 2376.88 2290.92 2372.88 2272.93" fill="#414042" transform="matrix(1 0 0 1.00017 -333.814 -232.641)"/><path d="M2452.84 2250.94C2452.84 2236.94 2454.84 2224.95 2458.84 2212.96 2474.83 2160.98 2550.8 2140.99 2590.78 2176.97 2598.77 2184.97 2602.77 2190.97 2588.78 2198.96 2578.78 2204.96 2570.79 2212.96 2556.79 2202.96 2532.8 2186.97 2504.82 2200.96 2498.82 2228.95 2494.82 2242.94 2494.82 2258.93 2498.82 2272.93 2504.82 2300.91 2534.8 2314.91 2558.79 2298.92 2572.79 2290.92 2578.78 2292.92 2588.78 2300.91 2604.77 2312.91 2606.77 2314.91 2588.78 2326.9 2558.79 2346.89 2524.81 2346.89 2492.82 2330.9 2458.84 2316.91 2452.84 2284.92 2452.84 2250.94" fill="#414042" transform="matrix(1 0 0 1.00017 -333.814 -232.641)"/><path d="M2938.61 2202.96C2938.61 2224.95 2938.61 2246.94 2938.61 2268.93 2940.61 2328.9 2908.63 2340.9 2858.65 2340.9 2854.65 2340.9 2852.65 2340.9 2848.66 2338.9 2812.67 2334.9 2810.67 2332.9 2826.67 2298.92 2828.67 2292.92 2832.66 2290.92 2838.66 2292.92 2884.64 2304.91 2892.64 2298.92 2892.64 2252.94 2892.64 2208.96 2892.64 2164.98 2892.64 2121 2892.64 2111 2894.63 2109 2904.63 2109 2938.61 2109 2938.61 2109 2938.61 2140.99L2938.61 2202.96Z" fill="#414042" transform="matrix(1 0 0 1.00017 -333.814 -232.641)"/><path d="M2636.76 2252.94C2636.76 2238.94 2636.76 2224.95 2636.76 2210.96 2636.76 2202.96 2634.76 2198.96 2626.76 2198.96 2610.77 2200.96 2614.77 2190.97 2614.77 2182.97 2614.77 2174.97 2610.77 2162.98 2626.76 2166.98 2634.76 2168.98 2638.75 2164.98 2636.76 2154.98 2636.76 2148.99 2636.76 2142.99 2636.76 2138.99 2632.76 2121 2640.75 2117 2658.75 2117 2680.74 2119 2680.74 2117 2680.74 2138.99 2680.74 2142.99 2680.74 2148.99 2680.74 2152.98 2678.74 2162.98 2684.73 2164.98 2692.73 2164.98 2696.73 2164.98 2700.73 2164.98 2704.72 2164.98 2718.72 2162.98 2720.72 2168.98 2720.72 2182.97 2720.72 2196.96 2716.72 2200.96 2702.72 2198.96 2698.73 2198.96 2694.73 2198.96 2688.73 2198.96 2680.74 2196.96 2678.74 2202.96 2678.74 2208.96 2678.74 2232.95 2678.74 2258.93 2678.74 2282.92 2678.74 2302.91 2688.73 2310.91 2706.72 2304.91 2728.71 2298.92 2720.72 2316.91 2724.71 2324.9 2730.71 2336.9 2722.72 2338.9 2712.72 2338.9 2706.72 2338.9 2698.73 2340.9 2692.73 2340.9 2654.75 2342.89 2636.76 2324.9 2634.76 2286.92 2636.76 2274.93 2638.75 2264.93 2636.76 2252.94L2636.76 2252.94Z" fill="#414042" transform="matrix(1 0 0 1.00017 -333.814 -232.641)"/><path d="M2684.73 1307.38C2684.73 1383.35 2624.76 1443.32 2548.8 1443.32 2472.83 1443.32 2410.86 1383.35 2410.86 1307.38 2410.86 1231.42 2472.83 1169.45 2548.8 1169.45 2624.76 1171.45 2684.73 1233.42 2684.73 1307.38" fill="#414042" transform="matrix(1 0 0 1.00017 -333.814 -232.641)"/></g></g></g></svg>